<svg width="170" height="463" viewBox="0 0 170 463" fill="none" xmlns="http://www.w3.org/2000/svg">
<path d="M38.2928 15.0001H131.463C141.598 15.0001 151.318 18.7301 158.485 25.3696C165.652 32.0091 169.678 41.0142 169.678 50.4039V463H0.000688415V50.6163C-0.0295879 45.9432 0.939079 41.3108 2.85082 36.9862C4.76257 32.6616 7.57956 28.7305 11.1393 25.4194C14.6991 22.1084 18.9312 19.4831 23.5916 17.6948C28.252 15.9065 33.2485 14.9906 38.2928 15.0001Z" fill="#77C3A9"/>
<path d="M101 375.18V382.211H86.375V395.922H101V402.953H66.875V395.922H80.7031V382.211H66.875V375.18H101ZM75.6406 354.18V347.406H101V354.18H85.3438L101 362.664V369.461H75.6406V362.664H91.2734L75.6406 354.18ZM91.6484 332.289V335.008H101V341.781H75.6406V335.008H85.1797V332.594L75.6406 327.062V318.508L87.7109 326.805L101 317.734V326.758L91.6484 332.289ZM88.0859 317.594C85.5703 317.594 83.3281 317.109 81.3594 316.141C79.3906 315.172 77.8672 313.781 76.7891 311.969C75.7109 310.141 75.1719 308.023 75.1719 305.617C75.1719 302.195 76.2188 299.406 78.3125 297.25C80.4063 295.078 83.25 293.867 86.8438 293.617L88.5781 293.57C92.4688 293.57 95.5938 294.656 97.9531 296.828C100.297 299 101.469 301.914 101.469 305.57C101.469 309.227 100.297 312.148 97.9531 314.336C95.6094 316.508 92.4219 317.594 88.3906 317.594H88.0859ZM88.5781 310.82C90.9844 310.82 92.8281 310.367 94.1094 309.461C95.375 308.555 96.0078 307.258 96.0078 305.57C96.0078 303.93 95.3828 302.648 94.1328 301.727C92.8672 300.805 90.8516 300.344 88.0859 300.344C85.7266 300.344 83.8984 300.805 82.6016 301.727C81.3047 302.648 80.6563 303.945 80.6563 305.617C80.6563 307.273 81.3047 308.555 82.6016 309.461C83.8828 310.367 85.875 310.82 88.5781 310.82ZM75.6406 267.719H101V274.492H81.125V280.469L88.9531 280.891C93.125 281.156 96.1641 281.977 98.0703 283.352C99.9766 284.727 100.953 286.773 101 289.492V291.789L95.4922 291.859L95.4219 291.016C95.3281 289.797 94.6094 288.906 93.2656 288.344C91.9219 287.781 89.6328 287.43 86.3984 287.289L75.6406 286.82V267.719ZM101 247.797C100.391 248.109 99.6328 248.336 98.7266 248.477C100.555 250.117 101.469 252.25 101.469 254.875C101.469 257.359 100.75 259.422 99.3125 261.062C97.875 262.688 96.0625 263.5 93.875 263.5C91.1875 263.5 89.125 262.508 87.6875 260.523C86.25 258.523 85.5234 255.641 85.5078 251.875V248.758H84.0547C82.8828 248.758 81.9453 249.062 81.2422 249.672C80.5391 250.266 80.1875 251.211 80.1875 252.508C80.1875 253.648 80.4609 254.547 81.0078 255.203C81.5547 255.844 82.3047 256.164 83.2578 256.164V262.938C81.7891 262.938 80.4297 262.484 79.1797 261.578C77.9297 260.672 76.9531 259.391 76.25 257.734C75.5313 256.078 75.1719 254.219 75.1719 252.156C75.1719 249.031 75.9609 246.555 77.5391 244.727C79.1016 242.883 81.3047 241.961 84.1484 241.961H95.1406C97.5469 241.945 99.3672 241.609 100.602 240.953H101V247.797ZM96.2891 253.398C96.2891 252.398 96.0703 251.477 95.6328 250.633C95.1797 249.789 94.5781 249.164 93.8281 248.758H89.4688V251.289C89.4688 254.68 90.6406 256.484 92.9844 256.703L93.3828 256.727C94.2266 256.727 94.9219 256.43 95.4688 255.836C96.0156 255.242 96.2891 254.43 96.2891 253.398ZM72.5703 200.078V210.531H101V217.562H72.5703V227.875H66.875V200.078H72.5703ZM101.469 186.93C101.469 190.648 100.328 193.68 98.0469 196.023C95.7656 198.352 92.7266 199.516 88.9297 199.516H88.2734C85.7266 199.516 83.4531 199.023 81.4531 198.039C79.4375 197.055 77.8906 195.664 76.8125 193.867C75.7188 192.055 75.1719 189.992 75.1719 187.68C75.1719 184.211 76.2656 181.484 78.4531 179.5C80.6406 177.5 83.7422 176.5 87.7578 176.5H90.5234L90.5234 192.648C92.1797 192.43 93.5078 191.773 94.5078 190.68C95.5078 189.57 96.0078 188.172 96.0078 186.484C96.0078 183.875 95.0625 181.836 93.1719 180.367L96.8984 177.039C98.3359 178.055 99.4609 179.43 100.273 181.164C101.07 182.898 101.469 184.82 101.469 186.93ZM80.6563 187.703C80.6563 189.047 81.1094 190.141 82.0156 190.984C82.9219 191.812 84.2188 192.344 85.9063 192.578L85.9063 183.156H85.3672C83.8672 183.188 82.7109 183.594 81.8984 184.375C81.0703 185.156 80.6563 186.266 80.6563 187.703ZM96.0078 162.086C96.0078 160.836 95.6641 159.82 94.9766 159.039C94.2891 158.258 93.375 157.852 92.2344 157.82V151.469C93.9531 151.484 95.5313 151.953 96.9688 152.875C98.3906 153.797 99.5 155.062 100.297 156.672C101.078 158.266 101.469 160.031 101.469 161.969C101.469 165.594 100.32 168.453 98.0234 170.547C95.7109 172.641 92.5234 173.688 88.4609 173.688H88.0156C84.1094 173.688 80.9922 172.648 78.6641 170.57C76.3359 168.492 75.1719 165.641 75.1719 162.016C75.1719 158.844 76.0781 156.305 77.8906 154.398C79.6875 152.477 82.0859 151.5 85.0859 151.469V157.82C83.7734 157.852 82.7109 158.258 81.8984 159.039C81.0703 159.82 80.6563 160.852 80.6563 162.133C80.6563 163.711 81.2344 164.906 82.3906 165.719C83.5313 166.516 85.3906 166.914 87.9688 166.914H88.6719C91.2813 166.914 93.1563 166.516 94.2969 165.719C95.4375 164.922 96.0078 163.711 96.0078 162.086ZM75.6406 125.547H101V132.32H81.125V138.297L88.9531 138.719C93.125 138.984 96.1641 139.805 98.0703 141.18C99.9766 142.555 100.953 144.602 101 147.32V149.617L95.4922 149.688L95.4219 148.844C95.3281 147.625 94.6094 146.734 93.2656 146.172C91.9219 145.609 89.6328 145.258 86.3984 145.117L75.6406 144.648L75.6406 125.547ZM101 105.625C100.391 105.938 99.6328 106.164 98.7266 106.305C100.555 107.945 101.469 110.078 101.469 112.703C101.469 115.188 100.75 117.25 99.3125 118.891C97.875 120.516 96.0625 121.328 93.875 121.328C91.1875 121.328 89.125 120.336 87.6875 118.352C86.25 116.352 85.5234 113.469 85.5078 109.703V106.586H84.0547C82.8828 106.586 81.9453 106.891 81.2422 107.5C80.5391 108.094 80.1875 109.039 80.1875 110.336C80.1875 111.477 80.4609 112.375 81.0078 113.031C81.5547 113.672 82.3047 113.992 83.2578 113.992V120.766C81.7891 120.766 80.4297 120.312 79.1797 119.406C77.9297 118.5 76.9531 117.219 76.25 115.562C75.5313 113.906 75.1719 112.047 75.1719 109.984C75.1719 106.859 75.9609 104.383 77.5391 102.555C79.1016 100.711 81.3047 99.7891 84.1484 99.7891H95.1406C97.5469 99.7734 99.3672 99.4375 100.602 98.7812H101V105.625ZM96.2891 111.227C96.2891 110.227 96.0703 109.305 95.6328 108.461C95.1797 107.617 94.5781 106.992 93.8281 106.586H89.4688V109.117C89.4688 112.508 90.6406 114.312 92.9844 114.531L93.3828 114.555C94.2266 114.555 94.9219 114.258 95.4688 113.664C96.0156 113.07 96.2891 112.258 96.2891 111.227Z" fill="white"/>
</svg>
