<svg width="251" height="398" viewBox="0 0 251 398" fill="none" xmlns="http://www.w3.org/2000/svg">
<path d="M179.218 395.478L234.836 370.567C241.05 367.783 245.903 362.646 248.329 356.284C250.755 349.923 250.554 342.859 247.77 336.645L105.37 18.7807C101.95 11.1478 95.6385 5.18582 87.8228 2.20626C80.0072 -0.7733 71.3278 -0.526414 63.6943 2.89274L18.7825 23.0092C11.1489 26.4283 5.1864 32.7397 2.20657 40.5546C-0.773266 48.3696 -0.52631 57.0481 2.89315 64.681L145.293 382.546C148.077 388.759 153.215 393.612 159.577 396.037C165.939 398.463 173.004 398.262 179.218 395.478Z" fill="#77C3A9"/>
</svg>
