<svg width="170" height="452" viewBox="0 0 170 452" fill="none" xmlns="http://www.w3.org/2000/svg">
<path d="M15.2705 0H154.308C158.358 0 162.242 1.50735 165.106 4.19046C167.97 6.87357 169.579 10.5126 169.579 14.3071V452.463H0V14.3071C0 10.5126 1.60885 6.87357 4.47262 4.19046C7.3364 1.50735 11.2205 0 15.2705 0V0Z" fill="#77C3A9"/>
<path d="M69.9219 351.914V351.492C69.9219 348.82 70.5156 346.406 71.7031 344.25C72.875 342.078 74.5469 340.391 76.7188 339.188C78.8906 337.984 81.3594 337.383 84.125 337.383C88.2188 337.383 91.5625 338.695 94.1562 341.32C96.75 343.93 98.0469 347.461 98.0469 351.914H102.406V358.688H98.0469V359.133C98.0469 361.836 97.4688 364.273 96.3125 366.445C95.1406 368.617 93.5 370.305 91.3906 371.508C89.2812 372.695 86.875 373.289 84.1719 373.289C81.4375 373.289 78.9922 372.695 76.8359 371.508C74.6797 370.32 73 368.656 71.7969 366.516C70.5781 364.375 69.9531 361.984 69.9219 359.344V358.688H65.4688V351.914H69.9219ZM75.7578 359.133C75.7578 361.461 76.4922 363.297 77.9609 364.641C79.4297 365.969 81.5 366.633 84.1719 366.633C86.6719 366.633 88.6406 365.969 90.0781 364.641C91.5 363.312 92.2109 361.445 92.2109 359.039V358.688H75.7578V359.133ZM75.7578 351.914H92.2109V351.445C92.2109 349.148 91.4922 347.344 90.0547 346.031C88.6016 344.703 86.625 344.039 84.125 344.039C81.5156 344.039 79.4688 344.688 77.9844 345.984C76.5 347.281 75.7578 349.141 75.7578 351.562V351.914ZM101.469 321.539C101.469 325.258 100.328 328.289 98.0469 330.633C95.7656 332.961 92.7266 334.125 88.9297 334.125H88.2734C85.7266 334.125 83.4531 333.633 81.4531 332.648C79.4375 331.664 77.8906 330.273 76.8125 328.477C75.7188 326.664 75.1719 324.602 75.1719 322.289C75.1719 318.82 76.2656 316.094 78.4531 314.109C80.6406 312.109 83.7422 311.109 87.7578 311.109H90.5234L90.5234 327.258C92.1797 327.039 93.5078 326.383 94.5078 325.289C95.5078 324.18 96.0078 322.781 96.0078 321.094C96.0078 318.484 95.0625 316.445 93.1719 314.977L96.8984 311.648C98.3359 312.664 99.4609 314.039 100.273 315.773C101.07 317.508 101.469 319.43 101.469 321.539ZM80.6563 322.312C80.6562 323.656 81.1094 324.75 82.0156 325.594C82.9219 326.422 84.2188 326.953 85.9062 327.188L85.9063 317.766H85.3672C83.8672 317.797 82.7109 318.203 81.8984 318.984C81.0703 319.766 80.6563 320.875 80.6563 322.312ZM88.5547 284.414C92.4609 284.414 95.5938 285.305 97.9531 287.086C100.297 288.852 101.469 291.242 101.469 294.258C101.469 296.82 100.578 298.891 98.7969 300.469H110.75V307.242H75.6406V300.961L78.125 300.727C76.1563 299.086 75.1719 296.945 75.1719 294.305C75.1719 291.18 76.3281 288.75 78.6406 287.016C80.9531 285.281 84.1406 284.414 88.2031 284.414H88.5547ZM88.0625 291.188C85.7031 291.188 83.8828 291.609 82.6016 292.453C81.3203 293.281 80.6797 294.492 80.6797 296.086C80.6797 298.211 81.4922 299.672 83.1172 300.469H93.5C95.1719 299.641 96.0078 298.164 96.0078 296.039C96.0078 292.805 93.3594 291.188 88.0625 291.188ZM101.469 268.523C101.469 272.242 100.328 275.273 98.0469 277.617C95.7656 279.945 92.7266 281.109 88.9297 281.109H88.2734C85.7266 281.109 83.4531 280.617 81.4531 279.633C79.4375 278.648 77.8906 277.258 76.8125 275.461C75.7188 273.648 75.1719 271.586 75.1719 269.273C75.1719 265.805 76.2656 263.078 78.4531 261.094C80.6406 259.094 83.7422 258.094 87.7578 258.094H90.5234L90.5234 274.242C92.1797 274.023 93.5078 273.367 94.5078 272.273C95.5078 271.164 96.0078 269.766 96.0078 268.078C96.0078 265.469 95.0625 263.43 93.1719 261.961L96.8984 258.633C98.3359 259.648 99.4609 261.023 100.273 262.758C101.07 264.492 101.469 266.414 101.469 268.523ZM80.6563 269.297C80.6563 270.641 81.1094 271.734 82.0156 272.578C82.9219 273.406 84.2188 273.938 85.9063 274.172V264.75H85.3672C83.8672 264.781 82.7109 265.188 81.8984 265.969C81.0703 266.75 80.6563 267.859 80.6563 269.297ZM101 232.242V239.039H91.25V247.453H101V254.227H75.6406V247.453H85.8125V239.039H75.6406V232.242H101ZM75.6406 226.992V220.219H95.5391V211.734H75.6406V204.938H95.5859V201.141L108.523 201.609V207.914H101V226.992H75.6406ZM66.875 157.594H101V164.648H72.5703V173.742L84.6172 174.305C88.6797 174.539 91.8828 175.055 94.2266 175.852C96.5547 176.648 98.2656 177.812 99.3594 179.344C100.438 180.875 100.984 182.969 101 185.625V187.453H95.3516L95.2344 186.281C95 184.516 93.9844 183.258 92.1875 182.508C90.375 181.742 87.1563 181.258 82.5313 181.055L66.875 180.469L66.875 157.594ZM75.6406 136.617V129.844H101V136.617H85.3438L101 145.102L101 151.898H75.6406V145.102H91.2734L75.6406 136.617ZM96.0078 114.117C96.0078 112.867 95.6641 111.852 94.9766 111.07C94.2891 110.289 93.375 109.883 92.2344 109.852L92.2344 103.5C93.9531 103.516 95.5313 103.984 96.9688 104.906C98.3906 105.828 99.5 107.094 100.297 108.703C101.078 110.297 101.469 112.062 101.469 114C101.469 117.625 100.32 120.484 98.0234 122.578C95.7109 124.672 92.5234 125.719 88.4609 125.719H88.0156C84.1094 125.719 80.9922 124.68 78.6641 122.602C76.3359 120.523 75.1719 117.672 75.1719 114.047C75.1719 110.875 76.0781 108.336 77.8906 106.43C79.6875 104.508 82.0859 103.531 85.0859 103.5V109.852C83.7734 109.883 82.7109 110.289 81.8984 111.07C81.0703 111.852 80.6563 112.883 80.6563 114.164C80.6563 115.742 81.2344 116.938 82.3906 117.75C83.5313 118.547 85.3906 118.945 87.9688 118.945H88.6719C91.2813 118.945 93.1563 118.547 94.2969 117.75C95.4375 116.953 96.0078 115.742 96.0078 114.117ZM81.0781 78.5859V86.7188H101V93.5156H81.0781L81.0781 101.508H75.6406L75.6406 78.5859H81.0781Z" fill="white"/>
</svg>
