<svg width="170" height="452" viewBox="0 0 170 452" fill="none" xmlns="http://www.w3.org/2000/svg">
<path d="M15.2705 0H154.308C158.358 0 162.242 1.50735 165.106 4.19046C167.97 6.87357 169.579 10.5126 169.579 14.3071V452.463H0V14.3071C0 10.5126 1.60885 6.87357 4.47262 4.19046C7.3364 1.50735 11.2205 0 15.2705 0Z" fill="#77C3A9"/>
<path d="M99.628 356.072V350.044H95.052C94.964 341.552 89.112 335.436 80.972 335.436C72.832 335.436 66.98 341.552 66.892 350.044H62.8L62.8 356.072H66.892C66.98 364.564 72.832 370.68 80.972 370.68C89.112 370.68 94.964 364.564 95.052 356.072H99.628ZM89.2 356.072C89.244 361.396 85.416 364.652 80.972 364.652C76.528 364.652 72.7 361.396 72.744 356.072H89.2ZM72.744 350.044C72.7 344.72 76.528 341.464 80.972 341.464C85.416 341.464 89.244 344.72 89.2 350.044H72.744ZM88.408 307.437C87.528 307.305 86.692 307.305 85.812 307.305C78.552 307.305 72.832 312.409 72.832 319.845C72.832 328.645 80.4 332.825 85.988 332.825C91.576 332.825 98.792 328.689 98.792 319.933C98.792 318.789 98.704 311.353 90.96 308.097V314.697C92.72 316.149 93.248 318.261 93.248 320.153C93.248 323.277 91.4 325.785 88.408 326.533L88.408 307.437ZM83.216 326.621C80.312 325.653 78.376 323.057 78.376 319.845C78.376 316.853 80.136 314.257 83.216 313.421L83.216 326.621ZM106.14 303.624V297.772H95.36V297.684C98.264 295.396 98.792 292.316 98.792 290.336C98.792 282.592 92.5 278.104 85.812 278.104C77.936 278.104 72.832 283.692 72.832 290.336C72.832 292.228 73.404 296.1 76.792 298.168V298.256H73.624V303.624H106.14ZM78.376 290.952C78.376 286.024 82.512 283.956 85.768 283.956C90.08 283.956 93.248 286.992 93.248 291.172C93.248 295.132 90.476 298.124 85.812 298.124C81.544 298.124 78.376 295.22 78.376 290.952ZM88.408 250.245C87.528 250.113 86.692 250.113 85.812 250.113C78.552 250.113 72.832 255.217 72.832 262.653C72.832 271.453 80.4 275.633 85.988 275.633C91.576 275.633 98.792 271.497 98.792 262.741C98.792 261.597 98.704 254.161 90.96 250.905V257.505C92.72 258.957 93.248 261.069 93.248 262.961C93.248 266.085 91.4 268.593 88.408 269.341L88.408 250.245ZM83.216 269.429C80.312 268.461 78.376 265.865 78.376 262.653C78.376 259.661 80.136 257.065 83.216 256.229L83.216 269.429ZM73.624 246.433H98V240.581H87.792V231.517H98V225.665H73.624V231.517H82.6V240.581H73.624V246.433ZM73.624 220.909H98V202.077H104.16V196.357H92.808V200.053H73.624V205.905H92.808V215.057H73.624V220.909ZM65.44 167.25V172.53L98 185.422V178.778L73.8 169.89L98 161.002V154.358L65.44 167.25ZM73.624 151.686H98V145.834L82.204 135.01H98V129.158H73.624V135.01L89.42 145.834H73.624V151.686ZM90.08 106.537C93.072 108.165 93.248 111.289 93.248 112.301C93.248 116.789 89.904 119.605 85.724 119.605C81.808 119.605 78.376 116.965 78.376 112.301C78.376 109.749 79.476 107.681 81.72 106.537V99.9373C76.44 101.565 72.832 106.053 72.832 112.213C72.832 121.321 79.96 125.457 85.636 125.457C91.708 125.457 98.792 121.145 98.792 111.993C98.792 105.921 95.228 101.741 90.08 99.9373V106.537ZM73.624 98.1928H78.816V92.3408H98V86.4888H78.816V80.6368H73.624L73.624 98.1928Z" fill="white"/>
</svg>
