<svg width="475" height="227" viewBox="0 0 475 227" fill="none" xmlns="http://www.w3.org/2000/svg">
<path d="M0.367676 196.896L0.367676 143.722C0.367676 135.786 3.51224 128.176 9.10954 122.565C14.7068 116.954 22.2983 113.801 30.2141 113.801L475.924 113.801V226.816L30.2141 226.816C22.2983 226.816 14.7068 223.664 9.10954 218.053C3.51224 212.442 0.367676 204.832 0.367676 196.896Z" fill="#E24236"/>
<path d="M69.1558 81.6202V32.9279C69.1558 24.4033 72.5339 16.2277 78.5468 10.1998C84.5598 4.17197 92.7151 0.785583 101.219 0.785583L476 0.785583V113.801L101.257 113.801C97.04 113.806 92.8634 112.977 88.9664 111.361C85.0694 109.746 81.5287 107.376 78.5468 104.387C75.5649 101.397 73.2006 97.8477 71.5891 93.9411C69.9777 90.0345 69.1508 85.8476 69.1558 81.6202Z" fill="#E97F31"/>
</svg>
