<svg width="474" height="228" viewBox="0 0 474 228" fill="none" xmlns="http://www.w3.org/2000/svg">
<path d="M0.125488 214.079L0.125488 127.907C0.125488 124.217 1.57346 120.679 4.15085 118.07C6.72825 115.461 10.2239 113.996 13.8689 113.996L475.42 113.996V227.99L13.8689 227.99C10.2239 227.99 6.72825 226.525 4.15085 223.916C1.57346 221.307 0.125488 217.768 0.125488 214.079V214.079Z" fill="#E24236"/>
<path d="M68.8428 100.083V13.9107C68.8428 10.2212 70.2907 6.68294 72.8681 4.07408C75.4455 1.46523 78.9412 -0.000402808 82.5862 -0.000402808L475.267 -0.000402808V113.994L82.5862 113.994C78.9412 113.994 75.4455 112.529 72.8681 109.92C70.2907 107.311 68.8428 103.772 68.8428 100.083V100.083Z" fill="#E97F31"/>
</svg>
