<svg width="244" height="225" viewBox="0 0 244 225" fill="none" xmlns="http://www.w3.org/2000/svg">
<path d="M118.494 60.6262H125.373C135.174 60.6262 144.574 64.5292 151.504 71.4767C158.434 78.4242 162.328 87.8469 162.328 97.6721V224.785H81.54V97.6339C81.54 87.8087 85.4334 78.3859 92.3637 71.4384C99.2941 64.4909 108.694 60.5879 118.494 60.5879V60.6262Z" fill="white"/>
<path d="M199.359 119.662H206.238C216.039 119.662 225.438 123.565 232.369 130.513C239.299 137.46 243.192 146.883 243.192 156.708V224.785H162.29V156.67C162.295 151.799 163.258 146.976 165.124 142.478C166.991 137.981 169.724 133.896 173.167 130.459C176.611 127.021 180.696 124.298 185.191 122.446C189.685 120.593 194.499 119.647 199.359 119.662Z" fill="white"/>
<path d="M37.7446 119.662H44.6235C54.4245 119.662 63.8239 123.565 70.7543 130.513C77.6846 137.46 81.578 146.883 81.578 156.708V224.786H0.637207V156.67C0.642194 151.795 1.6068 146.97 3.47574 142.469C5.34469 137.969 8.08121 133.883 11.5285 130.445C14.9757 127.007 19.0659 124.285 23.5646 122.435C28.0633 120.584 32.882 119.642 37.7446 119.662Z" fill="white"/>
<path d="M135.118 32.3142L132.176 2.5471C132.184 2.16907 132.073 1.79803 131.859 1.48657C131.645 1.17512 131.339 0.939099 130.984 0.811923C130.629 0.684748 130.243 0.672913 129.88 0.778077C129.518 0.88324 129.198 1.10008 128.965 1.39784L119.335 16.4154C118.673 17.4426 117.932 18.4161 117.119 19.327L115.017 21.7788C112.798 24.2906 111.154 27.2589 110.202 30.4753C110.202 31.0499 109.858 31.7012 109.705 32.4291C109.341 34.1284 109.325 35.8843 109.661 37.5897C109.996 39.2951 110.674 40.9141 111.654 42.3481C112.633 43.782 113.894 45.0008 115.36 45.9301C116.825 46.8594 118.464 47.4797 120.176 47.7532C122.012 47.9893 123.877 47.8374 125.651 47.3073C127.425 46.7772 129.069 45.8807 130.476 44.6754C131.884 43.4701 133.024 41.9828 133.823 40.3091C134.623 38.6354 135.064 36.8125 135.118 34.9576C135.156 33.0804 135.156 34.3063 135.118 32.3142Z" fill="#F1D323"/>
<path d="M214.033 93.4966L211.091 63.7679C211.099 63.3898 210.989 63.0188 210.775 62.7073C210.561 62.3959 210.254 62.1598 209.899 62.0326C209.544 61.9055 209.158 61.8936 208.796 61.9988C208.433 62.1039 208.113 62.3208 207.881 62.6185L198.25 77.5978C197.589 78.6373 196.848 79.6235 196.034 80.5477L193.932 82.9995C191.718 85.5001 190.075 88.4549 189.117 91.6577C189.117 92.2706 188.773 92.9219 188.62 93.6115C188.25 95.3112 188.231 97.0689 188.564 98.7764C188.896 100.484 189.574 102.105 190.555 103.54C191.535 104.976 192.799 106.195 194.267 107.122C195.735 108.05 197.376 108.667 199.091 108.936C200.927 109.172 202.792 109.02 204.566 108.49C206.34 107.96 207.984 107.063 209.391 105.858C210.799 104.653 211.939 103.165 212.739 101.492C213.538 99.8178 213.979 97.9949 214.033 96.14C214.072 94.2628 214.072 95.527 214.033 93.4966Z" fill="#F1D323"/>
<path d="M56.9673 93.4966L54.0247 63.7679C54.033 63.3898 53.9223 63.0188 53.7084 62.7073C53.4945 62.3959 53.1884 62.1598 52.8332 62.0326C52.4779 61.9055 52.0917 61.8936 51.7294 61.9988C51.3671 62.1039 51.0471 62.3208 50.8146 62.6185L41.1841 77.5978C40.5227 78.6373 39.7817 79.6235 38.9676 80.5477L36.8658 82.9995C34.6516 85.5001 33.0083 88.4549 32.0505 91.6577C32.0505 92.2706 31.7066 92.9219 31.5537 93.6115C31.1838 95.3112 31.1646 97.0689 31.4972 98.7764C31.8299 100.484 32.5074 102.105 33.4882 103.54C34.4689 104.976 35.7322 106.195 37.2003 107.122C38.6683 108.05 40.3101 108.667 42.0248 108.936C43.8609 109.172 45.7261 109.02 47.5001 108.49C49.2741 107.96 50.9177 107.063 52.3252 105.858C53.7328 104.653 54.8729 103.165 55.6724 101.492C56.4719 99.8178 56.913 97.9949 56.9673 96.14C57.0055 94.2628 57.0055 95.527 56.9673 93.4966Z" fill="#F1D323"/>
</svg>
