<svg width="112" height="487" viewBox="0 0 112 487" fill="none" xmlns="http://www.w3.org/2000/svg">
<path d="M11.9598 0.0253906H100.041C103.213 0.0253906 106.254 1.30247 108.497 3.57568C110.74 5.84889 112 8.93202 112 12.1468V486.922H0.00054243V12.2623C-0.0145066 10.6608 0.283718 9.07213 0.877986 7.58814C1.47225 6.10415 2.35078 4.75423 3.4628 3.6164C4.57482 2.47856 5.89829 1.57536 7.35673 0.958998C8.81517 0.342632 10.3797 0.025318 11.9598 0.0253906V0.0253906Z" fill="#77C3A9"/>
<path d="M60.5566 402.164C64.2285 402.43 67.1191 403.789 69.2285 406.242C71.3379 408.68 72.3926 411.898 72.3926 415.898C72.3926 420.273 70.9238 423.719 67.9863 426.234C65.0332 428.734 60.9863 429.984 55.8457 429.984L53.7598 429.984C50.4785 429.984 47.5879 429.406 45.0879 428.25C42.5879 427.094 40.6738 425.445 39.3457 423.305C38.002 421.148 37.3301 418.648 37.3301 415.805C37.3301 411.867 38.3848 408.695 40.4941 406.289C42.6035 403.883 45.5645 402.492 49.377 402.117L49.377 409.148C47.1738 409.32 45.5801 409.937 44.5957 411C43.5957 412.047 43.0957 413.648 43.0957 415.805C43.0957 418.148 43.9395 419.906 45.627 421.078C47.2988 422.234 49.9004 422.828 53.4316 422.859L56.0098 422.859C59.6973 422.859 62.3926 422.305 64.0957 421.195C65.7988 420.07 66.6504 418.305 66.6504 415.898C66.6504 413.727 66.1582 412.109 65.1738 411.047C64.1738 409.969 62.6348 409.352 60.5566 409.195L60.5566 402.164ZM71.9238 383.297C71.3145 383.609 70.5566 383.836 69.6504 383.977C71.4785 385.617 72.3926 387.75 72.3926 390.375C72.3926 392.859 71.6738 394.922 70.2363 396.562C68.7988 398.187 66.9863 399 64.7988 399C62.1113 399 60.0488 398.008 58.6113 396.023C57.1738 394.023 56.4473 391.141 56.4316 387.375L56.4316 384.258L54.9785 384.258C53.8066 384.258 52.8691 384.562 52.166 385.172C51.4629 385.766 51.1113 386.711 51.1113 388.008C51.1113 389.148 51.3848 390.047 51.9316 390.703C52.4785 391.344 53.2285 391.664 54.1816 391.664L54.1816 398.437C52.7129 398.437 51.3535 397.984 50.1035 397.078C48.8535 396.172 47.877 394.891 47.1738 393.234C46.4551 391.578 46.0957 389.719 46.0957 387.656C46.0957 384.531 46.8848 382.055 48.4629 380.227C50.0254 378.383 52.2285 377.461 55.0723 377.461L66.0645 377.461C68.4707 377.445 70.291 377.109 71.5254 376.453L71.9238 376.453L71.9238 383.297ZM67.2129 388.898C67.2129 387.898 66.9941 386.977 66.5566 386.133C66.1035 385.289 65.502 384.664 64.752 384.258L60.3926 384.258L60.3926 386.789C60.3926 390.18 61.5645 391.984 63.9082 392.203L64.3066 392.227C65.1504 392.227 65.8457 391.93 66.3926 391.336C66.9395 390.742 67.2129 389.93 67.2129 388.898ZM46.5644 350.203L71.9238 350.203L71.9238 356.977L52.0488 356.977L52.0488 362.953L59.8769 363.375C64.0488 363.641 67.0879 364.461 68.9941 365.836C70.9004 367.211 71.877 369.258 71.9238 371.977L71.9238 374.273L66.416 374.344L66.3457 373.5C66.252 372.281 65.5332 371.391 64.1895 370.828C62.8457 370.266 60.5566 369.914 57.3223 369.773L46.5645 369.305L46.5644 350.203ZM53.9941 337.734L53.9941 332.883C53.9941 330.695 54.3613 328.773 55.0957 327.117C55.8301 325.461 56.8848 324.195 58.2598 323.32C59.6191 322.43 61.2051 321.984 63.0176 321.984C65.6894 321.984 67.8457 322.977 69.4863 324.961C71.1113 326.93 71.9238 329.617 71.9238 333.023L71.9238 344.531L46.5644 344.531L46.5644 337.734L53.9941 337.734ZM59.4316 337.734L66.5098 337.734L66.5098 332.93C66.5098 331.586 66.1973 330.555 65.5723 329.836C64.9473 329.117 64.0957 328.758 63.0176 328.758C61.9238 328.758 61.0566 329.109 60.416 329.812C59.7598 330.516 59.4316 331.555 59.4316 332.93L59.4316 337.734ZM71.9238 317.719L46.5644 317.719L46.5644 307.125C46.5644 303.672 47.1738 301.023 48.3926 299.18C49.6113 297.336 51.3613 296.414 53.6426 296.414C54.8144 296.414 55.8691 296.805 56.8066 297.586C57.7285 298.352 58.4394 299.477 58.9394 300.961C59.2832 299.148 59.9629 297.727 60.9785 296.695C61.9785 295.648 63.2129 295.125 64.6816 295.125C67.041 295.125 68.8379 296.016 70.0723 297.797C71.3066 299.562 71.9238 302.133 71.9238 305.508L71.9238 317.719ZM61.4004 310.945L66.5098 310.945L66.5098 305.484C66.5098 303.094 65.6738 301.898 64.0019 301.898C62.2988 301.898 61.4316 303.039 61.4004 305.32L61.4004 310.945ZM56.8535 310.945L56.8535 306.75C56.8223 304.375 56.0566 303.187 54.5566 303.187C53.6348 303.187 52.9785 303.516 52.5879 304.172C52.1973 304.812 52.0019 305.797 52.0019 307.125L52.0019 310.945L56.8535 310.945ZM71.9238 276.281C71.3144 276.594 70.5566 276.82 69.6504 276.961C71.4785 278.602 72.3926 280.734 72.3926 283.359C72.3926 285.844 71.6738 287.906 70.2363 289.547C68.7988 291.172 66.9863 291.984 64.7988 291.984C62.1113 291.984 60.0488 290.992 58.6113 289.008C57.1738 287.008 56.4473 284.125 56.4316 280.359L56.4316 277.242L54.9785 277.242C53.8066 277.242 52.8691 277.547 52.166 278.156C51.4629 278.75 51.1113 279.695 51.1113 280.992C51.1113 282.133 51.3848 283.031 51.9316 283.687C52.4785 284.328 53.2285 284.648 54.1816 284.648L54.1816 291.422C52.7129 291.422 51.3535 290.969 50.1035 290.062C48.8535 289.156 47.8769 287.875 47.1738 286.219C46.4551 284.562 46.0957 282.703 46.0957 280.641C46.0957 277.516 46.8848 275.039 48.4629 273.211C50.0254 271.367 52.2285 270.445 55.0723 270.445L66.0644 270.445C68.4707 270.43 70.291 270.094 71.5254 269.437L71.9238 269.437L71.9238 276.281ZM67.2129 281.883C67.2129 280.883 66.9941 279.961 66.5566 279.117C66.1035 278.273 65.5019 277.648 64.7519 277.242L60.3926 277.242L60.3926 279.773C60.3926 283.164 61.5644 284.969 63.9082 285.187L64.3066 285.211C65.1504 285.211 65.8457 284.914 66.3926 284.32C66.9394 283.727 67.2129 282.914 67.2129 281.883ZM66.4629 264.891C64.8379 263.359 63.2285 262.32 61.6348 261.773C60.041 261.227 57.7832 260.922 54.8613 260.859L46.5644 260.672L46.5644 242.016L66.4629 242.016L66.4629 238.359L79.541 238.359L79.541 245.133L71.9238 245.133L71.9238 260.156L79.541 260.156L79.541 267.07L66.4629 267.07L66.4629 264.891ZM66.4629 256.898L66.4629 248.766L52.166 248.766L52.166 254.039L55.2129 254.086C59.8691 254.227 63.6191 255.164 66.4629 256.898ZM59.0098 235.969C56.4941 235.969 54.2519 235.484 52.2832 234.516C50.3144 233.547 48.791 232.156 47.7129 230.344C46.6348 228.516 46.0957 226.398 46.0957 223.992C46.0957 220.57 47.1426 217.781 49.2363 215.625C51.3301 213.453 54.1738 212.242 57.7676 211.992L59.5019 211.945C63.3926 211.945 66.5176 213.031 68.8769 215.203C71.2207 217.375 72.3926 220.289 72.3926 223.945C72.3926 227.602 71.2207 230.523 68.8769 232.711C66.5332 234.883 63.3457 235.969 59.3144 235.969L59.0098 235.969ZM59.5019 229.195C61.9082 229.195 63.7519 228.742 65.0332 227.836C66.2988 226.93 66.9316 225.633 66.9316 223.945C66.9316 222.305 66.3066 221.023 65.0566 220.102C63.791 219.18 61.7754 218.719 59.0098 218.719C56.6504 218.719 54.8223 219.18 53.5254 220.102C52.2285 221.023 51.5801 222.32 51.5801 223.992C51.5801 225.648 52.2285 226.93 53.5254 227.836C54.8066 228.742 56.7988 229.195 59.5019 229.195ZM59.4785 184.945C63.3848 184.945 66.5176 185.836 68.8769 187.617C71.2207 189.383 72.3926 191.773 72.3926 194.789C72.3926 197.352 71.5019 199.422 69.7207 201L81.6738 201L81.6738 207.773L46.5644 207.773L46.5644 201.492L49.0488 201.258C47.0801 199.617 46.0957 197.477 46.0957 194.836C46.0957 191.711 47.2519 189.281 49.5644 187.547C51.8769 185.812 55.0644 184.945 59.1269 184.945L59.4785 184.945ZM58.9863 191.719C56.6269 191.719 54.8066 192.141 53.5254 192.984C52.2441 193.812 51.6035 195.023 51.6035 196.617C51.6035 198.742 52.416 200.203 54.041 201L64.4238 201C66.0957 200.172 66.9316 198.695 66.9316 196.57C66.9316 193.336 64.2832 191.719 58.9863 191.719ZM80.3144 136.687L80.3144 143.18L71.9238 143.18L71.9238 163.758L80.291 163.758L80.291 170.414L66.2754 170.789L66.2754 168.211C65.1191 166.82 63.4238 165.75 61.1894 165C58.9394 164.234 56.1582 163.719 52.8457 163.453L37.7988 162.469L37.7988 140.109L66.2754 140.109L66.2754 136.125L80.3144 136.687ZM66.2754 160.148L66.2754 147.141L43.4941 147.141L43.4941 155.789L52.4707 156.375C58.4863 156.844 63.0879 158.102 66.2754 160.148ZM71.9238 118.172C71.3144 118.484 70.5566 118.711 69.6504 118.852C71.4785 120.492 72.3926 122.625 72.3926 125.25C72.3926 127.734 71.6738 129.797 70.2363 131.437C68.7988 133.062 66.9863 133.875 64.7988 133.875C62.1113 133.875 60.0488 132.883 58.6113 130.898C57.1738 128.898 56.4473 126.016 56.4316 122.25L56.4316 119.133L54.9785 119.133C53.8066 119.133 52.8691 119.437 52.166 120.047C51.4629 120.641 51.1113 121.586 51.1113 122.883C51.1113 124.023 51.3848 124.922 51.9316 125.578C52.4785 126.219 53.2285 126.539 54.1816 126.539L54.1816 133.312C52.7129 133.312 51.3535 132.859 50.1035 131.953C48.8535 131.047 47.8769 129.766 47.1738 128.109C46.4551 126.453 46.0957 124.594 46.0957 122.531C46.0957 119.406 46.8848 116.93 48.4629 115.102C50.0254 113.258 52.2285 112.336 55.0723 112.336L66.0644 112.336C68.4707 112.32 70.291 111.984 71.5254 111.328L71.9238 111.328L71.9238 118.172ZM67.2129 123.773C67.2129 122.773 66.9941 121.852 66.5566 121.008C66.1035 120.164 65.5019 119.539 64.7519 119.133L60.3926 119.133L60.3926 121.664C60.3926 125.055 61.5644 126.859 63.9082 127.078L64.3066 127.102C65.1504 127.102 65.8457 126.805 66.3926 126.211C66.9394 125.617 67.2129 124.805 67.2129 123.773ZM46.5644 85.0781L71.9238 85.0781L71.9238 91.8516L52.0488 91.8516L52.0488 97.8281L59.8769 98.25C64.0488 98.5156 67.0879 99.3359 68.9941 100.711C70.9004 102.086 71.8769 104.133 71.9238 106.852L71.9238 109.148L66.416 109.219L66.3457 108.375C66.2519 107.156 65.5332 106.266 64.1894 105.703C62.8457 105.141 60.5566 104.789 57.3223 104.648L46.5644 104.18L46.5644 85.0781ZM46.5644 64.5703L46.5644 57.7969L71.9238 57.7969L71.9238 64.5703L56.2676 64.5703L71.9238 73.0547L71.9238 79.8516L46.5644 79.8516L46.5644 73.0547L62.1972 73.0547L46.5644 64.5703Z" fill="white"/>
</svg>
