<svg width="112" height="482" viewBox="0 0 112 482" fill="none" xmlns="http://www.w3.org/2000/svg">
<path d="M28.1232 0.000410834H83.7252C87.4311 -0.0196734 91.1045 0.696813 94.5341 2.10863C97.9636 3.52045 101.082 5.59981 103.709 8.22713C106.337 10.8544 108.422 13.9779 109.845 17.418C111.268 20.8582 112 24.5471 112 28.2727V482H0V28.2727C0 20.7744 2.96297 13.5833 8.23709 8.2812C13.5112 2.97913 20.6644 0.000410834 28.1232 0.000410834V0.000410834Z" fill="#77C3A9"/>
<path d="M59.6328 418.164C63.3047 418.43 66.1953 419.789 68.3047 422.242C70.4141 424.68 71.4688 427.898 71.4688 431.898C71.4688 436.273 70 439.719 67.0625 442.234C64.1094 444.734 60.0625 445.984 54.9219 445.984H52.8359C49.5547 445.984 46.6641 445.406 44.1641 444.25C41.6641 443.094 39.75 441.445 38.4219 439.305C37.0781 437.148 36.4062 434.648 36.4062 431.805C36.4062 427.867 37.4609 424.695 39.5703 422.289C41.6797 419.883 44.6406 418.492 48.4531 418.117V425.148C46.25 425.32 44.6562 425.938 43.6719 427C42.6719 428.047 42.1719 429.648 42.1719 431.805C42.1719 434.148 43.0156 435.906 44.7031 437.078C46.375 438.234 48.9766 438.828 52.5078 438.859H55.0859C58.7734 438.859 61.4688 438.305 63.1719 437.195C64.875 436.07 65.7266 434.305 65.7266 431.898C65.7266 429.727 65.2344 428.109 64.25 427.047C63.25 425.969 61.7109 425.352 59.6328 425.195V418.164ZM71 399.297C70.3906 399.609 69.6328 399.836 68.7266 399.977C70.5547 401.617 71.4688 403.75 71.4688 406.375C71.4688 408.859 70.75 410.922 69.3125 412.562C67.875 414.188 66.0625 415 63.875 415C61.1875 415 59.125 414.008 57.6875 412.023C56.25 410.023 55.5234 407.141 55.5078 403.375V400.258H54.0547C52.8828 400.258 51.9453 400.562 51.2422 401.172C50.5391 401.766 50.1875 402.711 50.1875 404.008C50.1875 405.148 50.4609 406.047 51.0078 406.703C51.5547 407.344 52.3047 407.664 53.2578 407.664V414.438C51.7891 414.438 50.4297 413.984 49.1797 413.078C47.9297 412.172 46.9531 410.891 46.25 409.234C45.5313 407.578 45.1719 405.719 45.1719 403.656C45.1719 400.531 45.9609 398.055 47.5391 396.227C49.1016 394.383 51.3047 393.461 54.1484 393.461H65.1406C67.5469 393.445 69.3672 393.109 70.6016 392.453H71V399.297ZM66.2891 404.898C66.2891 403.898 66.0703 402.977 65.6328 402.133C65.1797 401.289 64.5781 400.664 63.8281 400.258H59.4688V402.789C59.4688 406.18 60.6406 407.984 62.9844 408.203L63.3828 408.227C64.2266 408.227 64.9219 407.93 65.4688 407.336C66.0156 406.742 66.2891 405.93 66.2891 404.898ZM45.6406 366.203H71V372.977H51.125V378.953L58.9531 379.375C63.125 379.641 66.1641 380.461 68.0703 381.836C69.9766 383.211 70.9531 385.258 71 387.977V390.273L65.4922 390.344L65.4219 389.5C65.3281 388.281 64.6094 387.391 63.2656 386.828C61.9219 386.266 59.6328 385.914 56.3984 385.773L45.6406 385.305V366.203ZM53.0703 353.734V348.883C53.0703 346.695 53.4375 344.773 54.1719 343.117C54.9063 341.461 55.9609 340.195 57.3359 339.32C58.6953 338.43 60.2813 337.984 62.0938 337.984C64.7656 337.984 66.9219 338.977 68.5625 340.961C70.1875 342.93 71 345.617 71 349.023V360.531H45.6406V353.734H53.0703ZM58.5078 353.734H65.5859V348.93C65.5859 347.586 65.2734 346.555 64.6484 345.836C64.0234 345.117 63.1719 344.758 62.0938 344.758C61 344.758 60.1328 345.109 59.4922 345.812C58.8359 346.516 58.5078 347.555 58.5078 348.93V353.734ZM71 333.719H45.6406V323.125C45.6406 319.672 46.25 317.023 47.4688 315.18C48.6875 313.336 50.4375 312.414 52.7188 312.414C53.8906 312.414 54.9453 312.805 55.8828 313.586C56.8047 314.352 57.5156 315.477 58.0156 316.961C58.3594 315.148 59.0391 313.727 60.0547 312.695C61.0547 311.648 62.2891 311.125 63.7578 311.125C66.1172 311.125 67.9141 312.016 69.1484 313.797C70.3828 315.562 71 318.133 71 321.508V333.719ZM60.4766 326.945H65.5859V321.484C65.5859 319.094 64.75 317.898 63.0781 317.898C61.375 317.898 60.5078 319.039 60.4766 321.32V326.945ZM55.9297 326.945V322.75C55.8984 320.375 55.1328 319.188 53.6328 319.188C52.7109 319.188 52.0547 319.516 51.6641 320.172C51.2734 320.812 51.0781 321.797 51.0781 323.125V326.945H55.9297ZM71 292.281C70.3906 292.594 69.6328 292.82 68.7266 292.961C70.5547 294.602 71.4688 296.734 71.4688 299.359C71.4688 301.844 70.75 303.906 69.3125 305.547C67.875 307.172 66.0625 307.984 63.875 307.984C61.1875 307.984 59.125 306.992 57.6875 305.008C56.25 303.008 55.5234 300.125 55.5078 296.359V293.242H54.0547C52.8828 293.242 51.9453 293.547 51.2422 294.156C50.5391 294.75 50.1875 295.695 50.1875 296.992C50.1875 298.133 50.4609 299.031 51.0078 299.688C51.5547 300.328 52.3047 300.648 53.2578 300.648V307.422C51.7891 307.422 50.4297 306.969 49.1797 306.062C47.9297 305.156 46.9531 303.875 46.25 302.219C45.5313 300.562 45.1719 298.703 45.1719 296.641C45.1719 293.516 45.9609 291.039 47.5391 289.211C49.1016 287.367 51.3047 286.445 54.1484 286.445H65.1406C67.5469 286.43 69.3672 286.094 70.6016 285.438H71V292.281ZM66.2891 297.883C66.2891 296.883 66.0703 295.961 65.6328 295.117C65.1797 294.273 64.5781 293.648 63.8281 293.242H59.4688V295.773C59.4688 299.164 60.6406 300.969 62.9844 301.188L63.3828 301.211C64.2266 301.211 64.9219 300.914 65.4688 300.32C66.0156 299.727 66.2891 298.914 66.2891 297.883ZM65.5391 280.891C63.9141 279.359 62.3047 278.32 60.7109 277.773C59.1172 277.227 56.8594 276.922 53.9375 276.859L45.6406 276.672V258.016H65.5391V254.359H78.6172V261.133H71V276.156H78.6172V283.07H65.5391V280.891ZM65.5391 272.898V264.766H51.2422V270.039L54.2891 270.086C58.9453 270.227 62.6953 271.164 65.5391 272.898ZM58.0859 251.969C55.5703 251.969 53.3281 251.484 51.3594 250.516C49.3906 249.547 47.8672 248.156 46.7891 246.344C45.7109 244.516 45.1719 242.398 45.1719 239.992C45.1719 236.57 46.2188 233.781 48.3125 231.625C50.4063 229.453 53.25 228.242 56.8438 227.992L58.5781 227.945C62.4688 227.945 65.5938 229.031 67.9531 231.203C70.2969 233.375 71.4688 236.289 71.4688 239.945C71.4688 243.602 70.2969 246.523 67.9531 248.711C65.6094 250.883 62.4219 251.969 58.3906 251.969H58.0859ZM58.5781 245.195C60.9844 245.195 62.8281 244.742 64.1094 243.836C65.375 242.93 66.0078 241.633 66.0078 239.945C66.0078 238.305 65.3828 237.023 64.1328 236.102C62.8672 235.18 60.8516 234.719 58.0859 234.719C55.7266 234.719 53.8984 235.18 52.6016 236.102C51.3047 237.023 50.6563 238.32 50.6563 239.992C50.6563 241.648 51.3047 242.93 52.6016 243.836C53.8828 244.742 55.875 245.195 58.5781 245.195ZM58.5547 200.945C62.4609 200.945 65.5938 201.836 67.9531 203.617C70.2969 205.383 71.4688 207.773 71.4688 210.789C71.4688 213.352 70.5781 215.422 68.7969 217H80.75L80.75 223.773H45.6406V217.492L48.125 217.258C46.1563 215.617 45.1719 213.477 45.1719 210.836C45.1719 207.711 46.3281 205.281 48.6406 203.547C50.9531 201.812 54.1406 200.945 58.2031 200.945H58.5547ZM58.0625 207.719C55.7031 207.719 53.8828 208.141 52.6016 208.984C51.3203 209.812 50.6797 211.023 50.6797 212.617C50.6797 214.742 51.4922 216.203 53.1172 217H63.5C65.1719 216.172 66.0078 214.695 66.0078 212.57C66.0078 209.336 63.3594 207.719 58.0625 207.719ZM79.3906 152.688V159.18H71V179.758H79.3672L79.3672 186.414L65.3516 186.789V184.211C64.1953 182.82 62.5 181.75 60.2656 181C58.0156 180.234 55.2344 179.719 51.9219 179.453L36.875 178.469L36.875 156.109H65.3516V152.125L79.3906 152.688ZM65.3516 176.148V163.141H42.5703V171.789L51.5469 172.375C57.5625 172.844 62.1641 174.102 65.3516 176.148ZM71 134.172C70.3906 134.484 69.6328 134.711 68.7266 134.852C70.5547 136.492 71.4688 138.625 71.4688 141.25C71.4688 143.734 70.75 145.797 69.3125 147.438C67.875 149.062 66.0625 149.875 63.875 149.875C61.1875 149.875 59.125 148.883 57.6875 146.898C56.25 144.898 55.5234 142.016 55.5078 138.25V135.133H54.0547C52.8828 135.133 51.9453 135.438 51.2422 136.047C50.5391 136.641 50.1875 137.586 50.1875 138.883C50.1875 140.023 50.4609 140.922 51.0078 141.578C51.5547 142.219 52.3047 142.539 53.2578 142.539L53.2578 149.312C51.7891 149.312 50.4297 148.859 49.1797 147.953C47.9297 147.047 46.9531 145.766 46.25 144.109C45.5313 142.453 45.1719 140.594 45.1719 138.531C45.1719 135.406 45.9609 132.93 47.5391 131.102C49.1016 129.258 51.3047 128.336 54.1484 128.336H65.1406C67.5469 128.32 69.3672 127.984 70.6016 127.328H71V134.172ZM66.2891 139.773C66.2891 138.773 66.0703 137.852 65.6328 137.008C65.1797 136.164 64.5781 135.539 63.8281 135.133H59.4688V137.664C59.4688 141.055 60.6406 142.859 62.9844 143.078L63.3828 143.102C64.2266 143.102 64.9219 142.805 65.4688 142.211C66.0156 141.617 66.2891 140.805 66.2891 139.773ZM45.6406 101.078H71V107.852H51.125V113.828L58.9531 114.25C63.125 114.516 66.1641 115.336 68.0703 116.711C69.9766 118.086 70.9531 120.133 71 122.852V125.148L65.4922 125.219L65.4219 124.375C65.3281 123.156 64.6094 122.266 63.2656 121.703C61.9219 121.141 59.6328 120.789 56.3984 120.648L45.6406 120.18V101.078ZM45.6406 80.5703V73.7969H71V80.5703H55.3438L71 89.0547V95.8516H45.6406V89.0547H61.2734L45.6406 80.5703Z" fill="white"/>
</svg>
