<svg width="147" height="338" viewBox="0 0 147 338" fill="none" xmlns="http://www.w3.org/2000/svg">
<path d="M137.084 234H9.9163C4.40725 234 0 229.585 0 224.067V47.9334C0 42.4148 4.40725 38 9.9163 38H137.084C142.593 38 147 42.4148 147 47.9334V223.975C147 229.493 142.593 234 137.084 234Z" fill="white"/>
<path d="M73.913 36.2145C70.6075 36.2145 67.9448 33.7317 67.9448 30.6496V5.56487C67.9448 2.48279 70.6075 0 73.913 0C77.2184 0 79.8811 2.48279 79.8811 5.56487V30.6496C79.8811 33.7317 77.2184 36.2145 73.913 36.2145Z" fill="#3C7763"/>
<path d="M88.6037 41.6929H60.1402C56.9266 41.6929 54.2639 39.2101 54.2639 36.2136C54.2639 33.2172 56.9266 30.7344 60.1402 30.7344H88.6037C91.8173 30.7344 94.48 33.2172 94.48 36.2136C94.3882 39.2957 91.8173 41.6929 88.6037 41.6929Z" fill="#6D2E6F"/>
<path d="M123.036 238.902H24.7908C21.7608 238.902 19.1899 236.59 19.1899 233.679C19.1899 230.854 21.669 228.457 24.7908 228.457H123.127C126.157 228.457 128.728 230.769 128.728 233.679C128.637 236.59 126.157 238.902 123.036 238.902Z" fill="#6D2E6F"/>
<path d="M39.988 236.297L21.1934 334.004C20.7258 336.605 17.8272 338.338 14.7415 337.944C11.6558 337.55 9.59864 335.108 10.0662 332.507L28.8608 234.8C28.9543 234.248 29.6089 233.933 30.1699 234.012L39.053 235.194C39.614 235.273 40.0815 235.824 39.988 236.297Z" fill="#6D2E6F"/>
<path d="M106.012 236.297L124.18 334.004C124.632 336.605 127.434 338.338 130.417 337.944C133.399 337.55 135.388 335.108 134.936 332.507L116.768 234.8C116.677 234.248 116.045 233.933 115.502 234.012L106.915 235.194C106.373 235.273 105.921 235.824 106.012 236.297Z" fill="#6D2E6F"/>
<path d="M68 235.017V333.23C68 335.811 70.4344 338 73.5 338C76.4754 338 79 335.889 79 333.23V235.017C79 234.469 78.459 234 77.8279 234H69.1721C68.541 234.078 68 234.469 68 235.017Z" fill="#6D2E6F"/>
</svg>
