<svg width="112" height="487" viewBox="0 0 112 487" fill="none" xmlns="http://www.w3.org/2000/svg">
<path d="M11.9598 0.0253906H100.041C103.213 0.0253906 106.254 1.30247 108.497 3.57568C110.74 5.84889 112 8.93202 112 12.1468V486.922H0.00054243V12.2623C-0.0145066 10.6608 0.283718 9.07213 0.877986 7.58814C1.47225 6.10415 2.35078 4.75423 3.4628 3.6164C4.57482 2.47856 5.89829 1.57536 7.35673 0.958998C8.81517 0.342632 10.3797 0.025318 11.9598 0.0253906Z" fill="#77C3A9"/>
<path d="M45.768 400.56C39.52 403.288 35.868 408.92 35.868 415.652C35.868 427.18 45.46 432.68 52.72 432.68C60.2 432.68 69.792 427.136 69.792 415.74C69.792 408.656 65.876 403.42 60.156 400.736L60.156 407.732C62.796 409.756 63.94 412.66 63.94 415.564C63.94 421.812 58.836 426.652 52.72 426.652C47 426.652 41.72 422.12 41.72 415.608C41.72 411.736 43.7 409.052 45.768 407.424L45.768 400.56ZM44.624 373.004L44.624 378.372L48.056 378.372L48.056 378.46C45.284 380.22 43.832 382.948 43.832 386.424C43.832 393.156 49.376 398.524 57.032 398.524C64.908 398.524 69.792 392.804 69.792 386.6C69.792 385.324 69.572 381.276 65.7 378.46L65.7 378.372L69 378.372L69 373.004L44.624 373.004ZM49.376 385.5C49.376 381.276 52.544 378.504 56.768 378.504C61.212 378.504 64.248 381.32 64.248 385.5C64.248 389.768 61.168 392.672 57.032 392.672C52.632 392.672 49.376 389.724 49.376 385.5ZM44.624 355.221L44.624 360.501L69 370.445L69 363.933L52.544 357.861L69 351.789L69 345.277L44.624 355.221ZM44.624 342.722L69 342.722L69 331.634C69 326.926 66.052 323.45 61.08 323.45C56.944 323.45 53.16 325.958 53.16 331.634L53.16 336.87L44.624 336.87L44.624 342.722ZM58.352 336.87L58.352 332.25C58.352 329.874 59.848 329.302 61.08 329.302C63.764 329.302 63.808 331.766 63.808 332.25L63.808 336.87L58.352 336.87ZM44.624 319.862L69 319.862L69 309.434C69 303.934 65.524 301.206 61.74 301.206C59.1 301.206 56.856 302.966 56.064 305.782C55.184 303.714 53.336 302.086 51.004 302.086C48.012 302.086 44.624 304.154 44.624 309.126L44.624 319.862ZM49.64 314.01L49.64 310.182C49.64 308.334 50.872 307.806 51.84 307.806C53.336 307.806 54.04 308.994 54.04 310.182L54.04 314.01L49.64 314.01ZM59.056 314.01L59.056 309.83C59.056 307.19 60.86 306.926 61.52 306.926C62.488 306.926 63.984 307.454 63.984 309.83L63.984 314.01L59.056 314.01ZM44.624 273.574L44.624 278.942L48.056 278.942L48.056 279.03C45.284 280.79 43.832 283.518 43.832 286.994C43.832 293.726 49.376 299.094 57.032 299.094C64.908 299.094 69.792 293.374 69.792 287.17C69.792 285.894 69.572 281.846 65.7 279.03L65.7 278.942L69 278.942L69 273.574L44.624 273.574ZM49.376 286.07C49.376 281.846 52.544 279.074 56.768 279.074C61.212 279.074 64.248 281.89 64.248 286.07C64.248 290.338 61.168 293.242 57.032 293.242C52.632 293.242 49.376 290.294 49.376 286.07ZM44.624 253.591L44.624 258.871L63.808 267.803L63.808 270.707L75.16 270.707L75.16 264.987L69 264.987L69 247.475L75.16 247.475L75.16 241.755L63.808 241.755L63.808 244.659L44.624 253.591ZM63.808 261.203L52.544 256.231L63.808 251.259L63.808 261.203ZM43.832 227.205C43.832 234.685 49.728 240.141 56.856 240.141C63.94 240.141 69.792 234.641 69.792 227.205C69.792 219.769 63.94 214.269 56.856 214.269C49.728 214.269 43.832 219.725 43.832 227.205ZM49.376 227.205C49.376 222.849 52.896 220.121 56.856 220.121C60.816 220.121 64.248 222.893 64.248 227.205C64.248 231.517 60.816 234.289 56.856 234.289C52.896 234.289 49.376 231.561 49.376 227.205ZM77.14 210.765L77.14 204.913L66.36 204.913L66.36 204.825C69.264 202.537 69.792 199.457 69.792 197.477C69.792 189.733 63.5 185.245 56.812 185.245C48.936 185.245 43.832 190.833 43.832 197.477C43.832 199.369 44.404 203.241 47.792 205.309L47.792 205.397L44.624 205.397L44.624 210.765L77.14 210.765ZM49.376 198.093C49.376 193.165 53.512 191.097 56.768 191.097C61.08 191.097 64.248 194.133 64.248 198.313C64.248 202.273 61.476 205.265 56.812 205.265C52.544 205.265 49.376 202.361 49.376 198.093ZM36.44 153.1L36.44 158.38L63.148 170.436L63.148 173.56L75.16 173.56L75.16 167.532L69 167.532L69 144.036L75.16 144.036L75.16 138.008L63.148 138.008L63.148 141.044L36.44 153.1ZM63.148 163.792L44.8 155.74L63.148 147.688L63.148 163.792ZM44.624 111.066L44.624 116.434L48.056 116.434L48.056 116.522C45.284 118.282 43.832 121.01 43.832 124.486C43.832 131.218 49.376 136.586 57.032 136.586C64.908 136.586 69.792 130.866 69.792 124.662C69.792 123.386 69.572 119.338 65.7 116.522L65.7 116.434L69 116.434L69 111.066L44.624 111.066ZM49.376 123.562C49.376 119.338 52.544 116.566 56.768 116.566C61.212 116.566 64.248 119.382 64.248 123.562C64.248 127.83 61.168 130.734 57.032 130.734C52.632 130.734 49.376 127.786 49.376 123.562ZM44.624 93.2836L44.624 98.5636L69 108.508L69 101.996L52.544 95.9236L69 89.8516L69 83.3396L44.624 93.2836ZM44.624 80.7842L69 80.7842L69 74.9322L53.204 64.1082L69 64.1082L69 58.2562L44.624 58.2562L44.624 64.1082L60.42 74.9322L44.624 74.9322L44.624 80.7842Z" fill="white"/>
</svg>
