<svg width="154" height="482" viewBox="0 0 154 482" fill="none" xmlns="http://www.w3.org/2000/svg">
<path d="M38.2337 0.000476704H115.957C126.046 0.000476704 135.723 4.01489 142.857 11.1605C149.992 18.3062 154 27.9977 154 38.1032V480.819C154 480.974 153.969 481.127 153.91 481.271C153.851 481.414 153.764 481.544 153.655 481.654C153.545 481.764 153.415 481.851 153.272 481.91C153.129 481.969 152.976 482 152.821 482H1.17942C0.866642 482 0.56667 481.876 0.3455 481.654C0.124329 481.433 7.70489e-05 481.132 7.70489e-05 480.819V38.1794C-0.0100225 33.1532 0.972862 28.1747 2.89212 23.5306C4.81137 18.8865 7.62907 14.6686 11.1829 11.1198C14.7368 7.57109 18.9565 4.76159 23.5991 2.85324C28.2417 0.944886 33.2154 -0.0246645 38.2337 0.000476704V0.000476704Z" fill="#E24236"/>
</svg>
