<svg width="360" height="354" viewBox="0 0 360 354" fill="none" xmlns="http://www.w3.org/2000/svg">
<path d="M226.777 41.4519L146.017 4.95534C139.961 2.21858 132.853 4.95274 130.14 11.0623L4.91189 293.098C2.19915 299.207 4.90928 306.378 10.9652 309.115L91.7244 345.612C97.7803 348.349 104.889 345.614 107.601 339.505L232.83 57.4695C235.543 51.36 232.832 44.1886 226.777 41.4519Z" fill="#E97F31"/>
<path d="M348.879 44.5534L268.119 8.05692C262.064 5.32016 254.955 8.05432 252.242 14.1638L127.014 296.199C124.301 302.309 127.011 309.48 133.067 312.217L213.826 348.713C219.882 351.45 226.991 348.716 229.703 342.606L354.932 60.5711C357.645 54.4615 354.935 47.2902 348.879 44.5534Z" fill="#E24236"/>
</svg>
