<svg width="221" height="330" viewBox="0 0 221 330" fill="none" xmlns="http://www.w3.org/2000/svg">
<path d="M154.798 2.68261L202.272 23.9409C209.606 27.2253 215.335 33.2878 218.199 40.7947C221.062 48.3016 220.824 56.638 217.539 63.9701L105.203 314.659C103.826 317.732 101.857 320.503 99.4088 322.815C96.9605 325.127 94.0807 326.934 90.9336 328.134C87.7866 329.333 84.434 329.901 81.0674 329.805C77.7007 329.71 74.3859 328.952 71.3122 327.576L15.3748 302.527C12.3011 301.151 9.52869 299.183 7.21585 296.735C4.90302 294.288 3.09507 291.409 1.89522 288.263C0.695373 285.117 0.127119 281.766 0.222923 278.4C0.318726 275.035 1.07672 271.721 2.45359 268.649L114.79 17.9599C118.075 10.6278 124.14 4.90084 131.649 2.03872C139.159 -0.82339 147.498 -0.58616 154.833 2.69822L154.798 2.68261Z" fill="#E97F31"/>
</svg>
