<svg width="112" height="487" viewBox="0 0 112 487" fill="none" xmlns="http://www.w3.org/2000/svg">
<path d="M12.0854 0.0253906H98.8605C102.502 0.0253906 105.995 1.48491 108.57 4.08286C111.145 6.68082 112.592 10.2044 112.592 13.8785V485.191C112.592 485.65 112.411 486.091 112.089 486.415C111.767 486.74 111.331 486.922 110.875 486.922H1.78685C1.33162 486.922 0.895006 486.74 0.573113 486.415C0.25122 486.091 0.0703692 485.65 0.0703692 485.191V12.2623C0.0552501 10.6608 0.35485 9.07213 0.951888 7.58814C1.54893 6.10415 2.43151 4.75423 3.54872 3.6164C4.66593 2.47856 5.99567 1.57536 7.46091 0.958998C8.92614 0.342632 10.4978 0.025318 12.0854 0.0253906V0.0253906Z" fill="#E24236"/>
</svg>
