<svg width="221" height="330" viewBox="0 0 221 330" fill="none" xmlns="http://www.w3.org/2000/svg">
<path d="M154.949 2.7197L202.422 23.978C209.757 27.2623 215.486 33.3248 218.349 40.8317C221.212 48.3387 220.975 56.6751 217.689 64.0071L105.353 314.696C103.977 317.768 102.008 320.54 99.5595 322.852C97.1111 325.164 94.2312 326.971 91.0841 328.171C87.9371 329.37 84.5846 329.938 81.218 329.842C77.8513 329.746 74.5366 328.989 71.4628 327.612L15.4906 302.549C12.4169 301.172 9.64447 299.204 7.33163 296.757C5.0188 294.309 3.2108 291.43 2.01096 288.284C0.811108 285.138 0.242902 281.787 0.338705 278.422C0.434508 275.056 1.1925 271.743 2.56937 268.67L114.905 17.9813C118.191 10.6493 124.255 4.92231 131.765 2.0602C139.275 -0.80191 147.614 -0.56468 154.949 2.7197V2.7197Z" fill="#E24236"/>
</svg>
