<svg width="114" height="408" viewBox="0 0 114 408" fill="none" xmlns="http://www.w3.org/2000/svg">
<path d="M12.6615 0.0234375H101.153C104.339 0.0234375 107.396 1.30052 109.649 3.57373C111.902 5.84694 113.168 8.93008 113.168 12.1449V407.919H0.646484V12.1449C0.646484 8.93008 1.91232 5.84694 4.16557 3.57373C6.41882 1.30052 9.47488 0.0234375 12.6615 0.0234375Z" fill="#E97F31"/>
<path d="M70 362.008L70 355.98L43.292 355.98L43.292 344.1L70 344.1L70 338.072L37.44 338.072L37.44 362.008L70 362.008ZM45.624 332.718L70 332.718L70 326.866L54.204 316.042L70 316.042L70 310.19L45.624 310.19L45.624 316.042L61.42 326.866L45.624 326.866L45.624 332.718ZM45.624 307.369L50.816 307.369L50.816 301.517L70 301.517L70 295.665L50.816 295.665L50.816 289.813L45.624 289.813L45.624 307.369ZM70 276.07L70 270.042L45.624 270.042L70 261.374L70 256.27L45.624 247.602L70 247.602L70 241.574L37.44 241.574L37.44 249.758L62.344 258.822L37.44 267.886L37.44 276.07L70 276.07ZM44.832 224.506C44.832 231.986 50.728 237.442 57.856 237.442C64.94 237.442 70.792 231.942 70.792 224.506C70.792 217.07 64.94 211.57 57.856 211.57C50.728 211.57 44.832 217.026 44.832 224.506ZM50.376 224.506C50.376 220.15 53.896 217.422 57.856 217.422C61.816 217.422 65.248 220.194 65.248 224.506C65.248 228.818 61.816 231.59 57.856 231.59C53.896 231.59 50.376 228.862 50.376 224.506ZM45.624 208.065L70 208.065L70 202.213L59.792 202.213L59.792 193.149L70 193.149L70 187.297L45.624 187.297L45.624 193.149L54.6 193.149L54.6 202.213L45.624 202.213L45.624 208.065ZM45.624 167.318L45.624 172.598L64.808 181.53L64.808 184.434L76.16 184.434L76.16 178.714L70 178.714L70 161.202L76.16 161.202L76.16 155.482L64.808 155.482L64.808 158.386L45.624 167.318ZM64.808 174.93L53.544 169.958L64.808 164.986L64.808 174.93ZM78.14 152.636L78.14 146.784L67.36 146.784L67.36 146.696C70.264 144.408 70.792 141.328 70.792 139.348C70.792 131.604 64.5 127.116 57.812 127.116C49.936 127.116 44.832 132.704 44.832 139.348C44.832 141.24 45.404 145.112 48.792 147.18L48.792 147.268L45.624 147.268L45.624 152.636L78.14 152.636ZM50.376 139.964C50.376 135.036 54.512 132.968 57.768 132.968C62.08 132.968 65.248 136.004 65.248 140.184C65.248 144.144 62.476 147.136 57.812 147.136C53.544 147.136 50.376 144.232 50.376 139.964ZM45.624 123.589L70 123.589L70 117.737L54.204 106.913L70 106.913L70 101.061L45.624 101.061L45.624 106.913L61.42 117.737L45.624 117.737L45.624 123.589ZM45.624 72.0157L45.624 77.3837L49.056 77.3837L49.056 77.4717C46.284 79.2317 44.832 81.9597 44.832 85.4357C44.832 92.1677 50.376 97.5357 58.032 97.5357C65.908 97.5357 70.792 91.8157 70.792 85.6117C70.792 84.3357 70.572 80.2877 66.7 77.4717L66.7 77.3837L70 77.3837L70 72.0157L45.624 72.0157ZM50.376 84.5117C50.376 80.2877 53.544 77.5157 57.768 77.5157C62.212 77.5157 65.248 80.3317 65.248 84.5117C65.248 88.7797 62.168 91.6837 58.032 91.6837C53.632 91.6837 50.376 88.7357 50.376 84.5117ZM45.624 67.2568L70 67.2568L70 61.4048L59.792 61.4048L59.792 52.3408L70 52.3408L70 46.4888L45.624 46.4888L45.624 52.3408L54.6 52.3408L54.6 61.4048L45.624 61.4048L45.624 67.2568Z" fill="white"/>
</svg>
