<svg width="113" height="407" viewBox="0 0 113 407" fill="none" xmlns="http://www.w3.org/2000/svg">
<path d="M112.962 407H-2.51173e-06L-2.51173e-06 28.2686C-2.51173e-06 20.7713 2.9934 13.581 8.32182 8.27962C13.6502 2.97822 20.8772 -7.19608e-06 28.4127 -7.19607e-06H84.5873C92.1228 -7.19607e-06 99.3497 2.97822 104.678 8.27962C110.007 13.581 113 20.7713 113 28.2686L113 407H112.962Z" fill="#77C3A9"/>
<path d="M60.1016 321.172L60.1016 325.227L74 325.227L74 332.258L60.1016 332.258L60.1016 336.406L74 343.836L74 352.602L55.6953 341.961L39.875 352.086L39.875 343.344L53.6328 335.75L53.6328 332.258L39.875 332.258L39.875 325.227L53.6328 325.227L53.6328 321.805L39.875 314.398L39.875 305.68L55.6719 315.617L74 305.141L74 313.93L60.1016 321.172ZM58.3672 295.156L58.3672 291.5C55.2109 291 52.7266 289.711 50.9141 287.633C49.0859 285.539 48.1719 282.906 48.1719 279.734C48.1719 276.312 49.2187 273.523 51.3125 271.367C53.4062 269.195 56.25 267.984 59.8437 267.734L61.5781 267.687C65.4687 267.687 68.5937 268.773 70.9531 270.945C73.2969 273.117 74.4687 276.031 74.4687 279.687C74.4687 282.984 73.5156 285.687 71.6094 287.797C69.7031 289.891 67.1172 291.148 63.8516 291.57L63.8516 295.156L74 295.156L74 301.953L48.6406 301.953L48.6406 295.156L58.3672 295.156ZM61.5781 284.937C63.9844 284.937 65.8281 284.484 67.1094 283.578C68.375 282.672 69.0078 281.375 69.0078 279.687C69.0078 278.016 68.375 276.727 67.1094 275.82C65.8437 274.914 63.8359 274.461 61.0859 274.461C58.7266 274.461 56.8984 274.922 55.6016 275.844C54.3047 276.766 53.6562 278.062 53.6562 279.734C53.6562 281.391 54.3047 282.672 55.6016 283.578C56.8828 284.484 58.875 284.937 61.5781 284.937ZM48.6406 241.812L74 241.812L74 248.586L54.125 248.586L54.125 254.562L61.9531 254.984C66.125 255.25 69.1641 256.07 71.0703 257.445C72.9766 258.82 73.9531 260.867 74 263.586L74 265.883L68.4922 265.953L68.4219 265.109C68.3281 263.891 67.6094 263 66.2656 262.437C64.9219 261.875 62.6328 261.523 59.3984 261.383L48.6406 260.914L48.6406 241.812ZM56.0703 229.344L56.0703 224.492C56.0703 222.305 56.4375 220.383 57.1719 218.727C57.9062 217.07 58.9609 215.805 60.3359 214.93C61.6953 214.039 63.2812 213.594 65.0937 213.594C67.7656 213.594 69.9219 214.586 71.5625 216.57C73.1875 218.539 74 221.227 74 224.633L74 236.141L48.6406 236.141L48.6406 229.344L56.0703 229.344ZM61.5078 229.344L68.5859 229.344L68.5859 224.539C68.5859 223.195 68.2734 222.164 67.6484 221.445C67.0234 220.727 66.1719 220.367 65.0937 220.367C64 220.367 63.1328 220.719 62.4922 221.422C61.8359 222.125 61.5078 223.164 61.5078 224.539L61.5078 229.344ZM74 197.375L39.875 197.375L39.875 185.422C39.875 181.281 40.6719 178.141 42.2656 176C43.8437 173.859 46.1641 172.789 49.2266 172.789C50.8984 172.789 52.375 173.219 53.6562 174.078C54.9219 174.937 55.8516 176.133 56.4453 177.664C56.8828 175.914 57.7656 174.539 59.0937 173.539C60.4219 172.523 62.0469 172.016 63.9687 172.016C67.25 172.016 69.7344 173.062 71.4219 175.156C73.1094 177.25 73.9687 180.234 74 184.109L74 197.375ZM59.1406 190.344L68.3516 190.344L68.3516 184.32C68.3516 182.664 67.9609 181.375 67.1797 180.453C66.3828 179.516 65.2891 179.047 63.8984 179.047C60.7734 179.047 59.1875 180.664 59.1406 183.898L59.1406 190.344ZM54.1719 190.344L54.1719 185.141C54.1094 181.594 52.6953 179.82 49.9297 179.82C48.3828 179.82 47.2734 180.273 46.6016 181.18C45.9141 182.07 45.5703 183.484 45.5703 185.422L45.5703 190.344L54.1719 190.344ZM74.4687 155.492C74.4687 159.211 73.3281 162.242 71.0469 164.586C68.7656 166.914 65.7266 168.078 61.9297 168.078L61.2734 168.078C58.7266 168.078 56.4531 167.586 54.4531 166.602C52.4375 165.617 50.8906 164.227 49.8125 162.43C48.7187 160.617 48.1719 158.555 48.1719 156.242C48.1719 152.773 49.2656 150.047 51.4531 148.062C53.6406 146.062 56.7422 145.062 60.7578 145.062L63.5234 145.062L63.5234 161.211C65.1797 160.992 66.5078 160.336 67.5078 159.242C68.5078 158.133 69.0078 156.734 69.0078 155.047C69.0078 152.437 68.0625 150.398 66.1719 148.93L69.8984 145.602C71.3359 146.617 72.4609 147.992 73.2734 149.727C74.0703 151.461 74.4687 153.383 74.4687 155.492ZM53.6562 156.266C53.6562 157.609 54.1094 158.703 55.0156 159.547C55.9219 160.375 57.2187 160.906 58.9062 161.141L58.9062 151.719L58.3672 151.719C56.8672 151.75 55.7109 152.156 54.8984 152.937C54.0703 153.719 53.6562 154.828 53.6562 156.266ZM61.5547 118.367C65.4609 118.367 68.5937 119.258 70.9531 121.039C73.2969 122.805 74.4687 125.195 74.4687 128.211C74.4687 130.773 73.5781 132.844 71.7969 134.422L83.75 134.422L83.75 141.195L48.6406 141.195L48.6406 134.914L51.125 134.68C49.1562 133.039 48.1719 130.898 48.1719 128.258C48.1719 125.133 49.3281 122.703 51.6406 120.969C53.9531 119.234 57.1406 118.367 61.2031 118.367L61.5547 118.367ZM61.0625 125.141C58.7031 125.141 56.8828 125.562 55.6016 126.406C54.3203 127.234 53.6797 128.445 53.6797 130.039C53.6797 132.164 54.4922 133.625 56.1172 134.422L66.5 134.422C68.1719 133.594 69.0078 132.117 69.0078 129.992C69.0078 126.758 66.3594 125.141 61.0625 125.141ZM74 92.1641L74 98.9609L64.25 98.9609L64.25 107.375L74 107.375L74 114.148L48.6406 114.148L48.6406 107.375L58.8125 107.375L58.8125 98.9609L48.6406 98.9609L48.6406 92.1641L74 92.1641Z" fill="white"/>
</svg>
