<svg width="254" height="301" viewBox="0 0 254 301" fill="none" xmlns="http://www.w3.org/2000/svg">
<path d="M215.085 176.08L215.089 175.8C216.422 163.564 216.599 151.228 215.619 138.959C214.693 127.403 213.933 118.84 209.859 108.103C206.648 99.7589 202.202 91.9511 196.67 84.9443C186.836 72.8167 174.215 63.277 159.897 57.1475C140.061 48.846 118.098 47.1626 97.2375 52.3447C92.1772 53.6505 39.9526 67.9944 27.3738 117.163C18.0206 153.667 37.2734 183.268 39.5479 186.665C49.121 200.778 62.5621 211.791 78.2396 218.369L78.9106 218.565C79.3964 218.659 79.8966 218.648 80.3776 218.531C80.8585 218.414 81.3091 218.195 81.6988 217.889C82.0885 217.582 82.4083 217.195 82.6367 216.753C82.8651 216.312 82.9968 215.827 83.0228 215.33C83.2841 210.084 83.561 204.83 83.8534 199.569C83.8668 199.231 83.8325 198.892 83.7517 198.563C83.2489 196.398 82.0583 194.456 80.36 193.032C78.6618 191.607 76.5484 190.778 74.3397 190.67C71.8078 190.634 69.6941 190.604 67.7429 190.576C65.4201 190.542 64.4213 190.528 63.5036 189.72C62.9421 189.233 62.4861 188.635 62.1641 187.963C61.842 187.291 61.6607 186.56 61.6314 185.814L61.9225 165.56C61.9081 164.942 62.0788 164.334 62.4122 163.815C63.0637 162.826 63.9745 162.038 65.0438 161.538C66.113 161.038 67.2989 160.845 68.4703 160.981C69.7324 161.187 70.896 161.793 71.791 162.711C72.1149 163.049 72.364 163.451 72.5218 163.892C72.6797 164.334 72.7427 164.804 72.7067 165.271C72.4867 169.801 72.2435 174.331 71.977 178.86C71.9283 179.291 71.9796 179.727 72.1269 180.135C72.2742 180.542 72.5136 180.91 72.8261 181.209C73.2277 181.537 73.7146 181.741 74.2287 181.798C74.7429 181.856 75.2625 181.763 75.7256 181.531C78.961 181.316 82.1863 182.078 84.9873 183.72C86.9939 184.996 88.7166 186.676 90.0475 188.653C91.3784 190.63 92.2887 192.863 92.7214 195.211C92.7408 195.444 92.7375 195.679 92.7113 195.911L92.1552 234.598C92.1282 234.807 92.1252 235.019 92.1462 235.229C92.5569 237.585 93.8176 239.706 95.6868 241.186C97.556 242.666 99.9023 243.4 102.277 243.249C104.816 243.066 107.184 241.893 108.875 239.979C109.912 238.767 110.635 237.317 110.98 235.756C111.079 235.334 111.085 234.896 110.999 234.471C110.82 233.647 110.88 232.788 111.174 231.997C111.468 231.396 111.878 230.86 112.381 230.42C112.884 229.981 113.469 229.647 114.102 229.439C114.735 229.23 115.403 229.151 116.066 229.206C116.73 229.261 117.376 229.448 117.967 229.758C118.572 230.079 119.067 230.577 119.386 231.187C119.705 231.796 119.833 232.488 119.753 233.172C119.587 234.508 119.71 235.865 120.114 237.149C120.83 239.295 122.276 241.117 124.197 242.295C126.118 243.473 128.392 243.93 130.616 243.586C132.831 243.189 134.851 242.058 136.354 240.374C136.964 239.758 137.504 239.076 137.963 238.341C138.419 237.578 138.566 236.668 138.371 235.799C138.216 235.069 138.219 234.313 138.381 233.583C138.543 232.854 138.86 232.169 139.31 231.574C139.759 230.979 140.332 230.489 140.987 230.137C141.643 229.785 142.366 229.58 143.108 229.535C143.905 229.519 144.692 229.709 145.395 230.088C146.097 230.466 146.691 231.02 147.12 231.696C147.518 232.273 147.72 232.965 147.695 233.667L147.656 236.377C147.648 236.858 147.735 237.336 147.915 237.783C148.412 238.989 149.138 240.087 150.052 241.014C151.049 241.975 152.227 242.725 153.517 243.221C154.806 243.717 156.182 243.949 157.562 243.903C159.595 243.829 161.548 243.085 163.121 241.786C163.866 241.131 164.49 240.349 164.967 239.476C165.393 238.728 165.529 237.848 165.351 237.005C165.077 235.661 165.202 234.265 165.71 232.991C165.94 232.259 166.322 231.584 166.831 231.011C167.34 230.438 167.964 229.981 168.662 229.669C169.571 229.36 170.551 229.328 171.478 229.578C172.405 229.829 173.237 230.35 173.87 231.076C174.344 231.625 174.685 232.278 174.864 232.983L174.925 236.816C174.927 237.493 175.128 238.154 175.502 238.717C176.154 239.683 176.922 240.565 177.788 241.343C179.428 243.165 181.696 244.291 184.131 244.495C186.486 244.36 188.69 243.291 190.261 241.522C191.509 240.334 192.489 238.89 193.133 237.288C193.304 236.882 193.397 236.447 193.407 236.006L193.926 199.937C193.906 199.711 193.909 199.484 193.935 199.259C194.906 194.986 197.155 191.115 200.379 188.166C203.603 185.217 207.648 183.332 211.969 182.765C212.384 182.836 212.811 182.811 213.215 182.691C213.619 182.571 213.991 182.36 214.302 182.074C214.574 181.759 214.771 181.385 214.878 180.982C214.984 180.578 214.998 180.155 214.916 179.746L215.085 176.08Z" fill="white"/>
<path d="M201.646 144.483C208.014 150.86 204.187 163.329 203.677 164.841C202.57 168.422 200.77 171.747 198.379 174.625C197.174 176.094 195.631 177.245 193.883 177.978C192.136 178.71 190.237 179.002 188.351 178.827L171.183 177.178C170.768 177.146 170.357 177.078 169.954 176.974C166.534 176.16 163.43 174.342 161.038 171.752C157.92 167.966 156.287 163.164 156.446 158.25C156.236 153.457 155.594 144.826 161.488 140.471C164.705 138.329 168.63 137.546 172.415 138.292C179.807 138.316 187.17 139.206 194.356 140.944C198.936 142.341 200.479 143.275 201.646 144.483Z" fill="#202123"/>
<path d="M93.0166 143.95C86.5834 150.26 90.4228 162.769 90.773 164.27C91.7109 167.42 93.1855 170.382 95.1311 173.024C96.4425 174.828 98.1921 176.263 100.213 177.192C102.233 178.121 104.457 178.513 106.671 178.331L122.861 176.951C123.601 176.9 124.334 176.777 125.05 176.586C128.241 175.737 131.131 174.005 133.393 171.588C136.539 167.836 138.211 163.056 138.093 158.15C138.372 153.341 139.076 144.729 133.216 140.298C130.019 138.145 126.109 137.342 122.328 138.062C114.942 138.205 107.586 139.054 100.36 140.597C95.7423 141.816 94.2187 142.752 93.0166 143.95Z" fill="#202123"/>
<path d="M151.952 180.01C151.602 179.454 151.107 179.005 150.522 178.713C149.936 178.42 149.282 178.294 148.63 178.35C147.427 178.404 146.286 178.903 145.427 179.752L132.187 207.017C132.011 207.744 131.991 208.501 132.129 209.236C132.266 209.971 132.558 210.669 132.986 211.281C133.562 212.008 134.326 212.563 135.194 212.884C136.061 213.205 137 213.282 137.908 213.105L146.371 209.417C146.924 209.19 147.523 209.102 148.117 209.162C148.739 209.204 149.338 209.415 149.851 209.771L157.35 213.384C158.167 213.741 159.07 213.853 159.949 213.709C160.829 213.564 161.648 213.168 162.31 212.567C162.778 212.117 163.151 211.576 163.407 210.978C163.663 210.379 163.797 209.735 163.801 209.084C158.151 193.207 153.885 182.888 151.952 180.01Z" fill="#202123"/>
<path d="M108.811 107.048C108.727 106.186 108.329 105.385 107.695 104.798C107.061 104.211 106.234 103.88 105.372 103.868C96.2011 103.371 87.0257 104.766 78.4096 107.966C74.7571 109.054 71.4516 111.085 68.8226 113.857C63.5302 119.996 63.9705 128.157 64.3254 130.943L64.871 146.326C65.1775 147.15 65.7277 147.859 66.4476 148.358C67.1674 148.857 68.0222 149.122 68.8966 149.118L69.5703 149.127C70.4752 148.914 71.2788 148.393 71.8443 147.651C72.4099 146.909 72.7025 145.994 72.6722 145.059C72.7618 138.83 72.9069 132.507 73.1075 126.092C73.112 124.86 73.3588 123.641 73.8337 122.505C74.3085 121.369 75.0021 120.338 75.8744 119.473C77.2358 118.207 78.922 117.349 80.7425 116.996C84.6104 116.21 100.554 112.607 106.157 110.702C106.951 110.409 109.046 108.5 108.811 107.048Z" fill="#202123"/>
</svg>
