<svg width="217" height="257" viewBox="0 0 217 257" fill="none" xmlns="http://www.w3.org/2000/svg">
<path d="M183.676 150.273L183.68 150.034C184.815 139.613 184.966 129.106 184.131 118.657C183.342 108.814 182.695 101.521 179.225 92.3764C176.491 85.2698 172.704 78.62 167.992 72.6523C159.616 62.3231 148.867 54.1981 136.673 48.9776C119.778 41.9072 101.072 40.4735 83.3051 44.887C78.9952 45.9993 34.5153 58.216 23.802 100.093C15.8358 131.183 32.2335 156.395 34.1707 159.288C42.3241 171.308 53.772 180.688 67.1245 186.29L67.696 186.457C68.1097 186.538 68.5358 186.528 68.9454 186.428C69.3551 186.329 69.7388 186.142 70.0707 185.881C70.4026 185.62 70.675 185.29 70.8695 184.914C71.0641 184.539 71.1762 184.125 71.1984 183.702C71.4209 179.234 71.6567 174.76 71.9058 170.279C71.9172 169.99 71.888 169.702 71.8192 169.422C71.391 167.577 70.3769 165.923 68.9305 164.71C67.4841 163.497 65.6841 162.792 63.8029 162.699C61.6465 162.668 59.8462 162.643 58.1844 162.619C56.2061 162.59 55.3554 162.578 54.5738 161.89C54.0956 161.475 53.7073 160.966 53.433 160.393C53.1587 159.821 53.0042 159.198 52.9792 158.564L53.2272 141.313C53.215 140.787 53.3603 140.269 53.6443 139.826C54.1992 138.984 54.9749 138.313 55.8856 137.887C56.7962 137.461 57.8063 137.297 58.804 137.413C59.8789 137.588 60.8699 138.104 61.6322 138.886C61.9081 139.174 62.1202 139.517 62.2547 139.893C62.3891 140.268 62.4428 140.669 62.4121 141.067C62.2248 144.925 62.0176 148.783 61.7907 152.64C61.7492 153.007 61.7928 153.379 61.9183 153.726C62.0438 154.073 62.2477 154.386 62.5138 154.641C62.8558 154.92 63.2705 155.095 63.7084 155.143C64.1463 155.192 64.5889 155.113 64.9833 154.915C67.7389 154.732 70.4859 155.381 72.8716 156.78C74.5806 157.867 76.0478 159.297 77.1813 160.981C78.3148 162.665 79.0901 164.567 79.4587 166.566C79.4752 166.765 79.4724 166.965 79.4501 167.163L78.9765 200.113C78.9535 200.291 78.9509 200.471 78.9688 200.65C79.3186 202.657 80.3923 204.464 81.9843 205.724C83.5763 206.984 85.5747 207.61 87.5969 207.48C89.7596 207.325 91.7765 206.326 93.217 204.695C94.1002 203.664 94.7162 202.428 95.01 201.099C95.094 200.74 95.0994 200.366 95.0257 200.005C94.873 199.303 94.9248 198.571 95.1747 197.898C95.4249 197.385 95.7744 196.929 96.2027 196.555C96.6309 196.18 97.1292 195.896 97.6683 195.718C98.2074 195.541 98.7764 195.473 99.3417 195.52C99.9071 195.567 100.457 195.727 100.96 195.991C101.476 196.264 101.897 196.688 102.169 197.207C102.441 197.726 102.55 198.316 102.482 198.898C102.34 200.036 102.445 201.192 102.789 202.286C103.399 204.113 104.63 205.665 106.267 206.668C107.903 207.671 109.839 208.061 111.734 207.768C113.62 207.43 115.341 206.467 116.621 205.032C117.14 204.508 117.6 203.927 117.991 203.3C118.38 202.651 118.504 201.875 118.339 201.136C118.206 200.514 118.209 199.87 118.347 199.249C118.485 198.627 118.755 198.044 119.138 197.537C119.521 197.03 120.008 196.613 120.567 196.313C121.125 196.013 121.741 195.839 122.373 195.801C123.052 195.787 123.723 195.949 124.321 196.271C124.919 196.594 125.425 197.065 125.79 197.641C126.13 198.132 126.302 198.722 126.28 199.32L126.247 201.628C126.239 202.038 126.314 202.445 126.467 202.825C126.89 203.853 127.509 204.788 128.288 205.578C129.137 206.396 130.14 207.035 131.238 207.457C132.337 207.88 133.508 208.077 134.683 208.038C136.415 207.975 138.079 207.341 139.419 206.235C140.053 205.677 140.585 205.011 140.99 204.268C141.353 203.63 141.469 202.881 141.317 202.163C141.084 201.018 141.191 199.829 141.624 198.744C141.82 198.12 142.145 197.546 142.578 197.058C143.012 196.57 143.543 196.18 144.138 195.915C144.912 195.651 145.747 195.624 146.536 195.838C147.325 196.051 148.034 196.495 148.573 197.113C148.977 197.58 149.267 198.137 149.42 198.737L149.472 202.001C149.474 202.578 149.644 203.141 149.963 203.62C150.518 204.444 151.172 205.195 151.91 205.857C153.307 207.409 155.239 208.368 157.313 208.542C159.318 208.427 161.196 207.517 162.534 206.01C163.597 204.998 164.431 203.768 164.98 202.403C165.125 202.058 165.204 201.687 165.213 201.312L165.655 170.591C165.638 170.399 165.641 170.206 165.663 170.014C166.49 166.375 168.405 163.078 171.151 160.566C173.897 158.055 177.342 156.449 181.022 155.966C181.376 156.027 181.739 156.006 182.083 155.904C182.428 155.802 182.745 155.622 183.009 155.378C183.241 155.109 183.409 154.791 183.5 154.448C183.59 154.104 183.602 153.744 183.533 153.395L183.676 150.273Z" fill="white"/>
<path d="M172.23 123.362C177.653 128.794 174.394 139.414 173.96 140.701C173.017 143.751 171.483 146.583 169.447 149.034C168.421 150.286 167.107 151.266 165.618 151.89C164.13 152.513 162.513 152.762 160.907 152.613L146.284 151.209C145.931 151.182 145.581 151.123 145.238 151.035C142.325 150.341 139.682 148.793 137.644 146.587C134.989 143.363 133.598 139.273 133.733 135.088C133.555 131.006 133.007 123.654 138.027 119.945C140.767 118.121 144.11 117.454 147.334 118.089C153.629 118.11 159.9 118.868 166.021 120.348C169.922 121.538 171.236 122.333 172.23 123.362Z" fill="#202123"/>
<path d="M79.7104 122.907C74.2311 128.281 77.5012 138.935 77.7995 140.213C78.5983 142.896 79.8542 145.419 81.5113 147.67C82.6282 149.206 84.1183 150.428 85.8392 151.219C87.56 152.01 89.4541 152.344 91.3401 152.189L105.129 151.014C105.759 150.97 106.383 150.866 106.994 150.703C109.711 149.98 112.173 148.505 114.099 146.446C116.778 143.251 118.202 139.18 118.102 135.001C118.339 130.905 118.94 123.57 113.948 119.797C111.226 117.963 107.895 117.279 104.675 117.892C98.3845 118.014 92.1195 118.737 85.9647 120.051C82.0318 121.089 80.7342 121.887 79.7104 122.907Z" fill="#202123"/>
<path d="M129.905 153.62C129.607 153.147 129.186 152.765 128.687 152.516C128.189 152.267 127.631 152.16 127.076 152.206C126.052 152.252 125.08 152.678 124.348 153.401L113.072 176.623C112.922 177.242 112.905 177.886 113.022 178.513C113.139 179.139 113.388 179.733 113.752 180.255C114.243 180.874 114.893 181.346 115.632 181.619C116.372 181.893 117.171 181.958 117.944 181.807L125.152 178.667C125.623 178.473 126.134 178.399 126.64 178.45C127.169 178.486 127.68 178.665 128.116 178.968L134.503 182.045C135.199 182.349 135.968 182.445 136.717 182.322C137.466 182.198 138.164 181.861 138.728 181.35C139.126 180.966 139.444 180.506 139.662 179.996C139.88 179.486 139.994 178.938 139.997 178.383C135.185 164.861 131.552 156.072 129.905 153.62Z" fill="#202123"/>
<path d="M93.1623 91.4785C93.0902 90.7438 92.7517 90.0617 92.2115 89.5621C91.6712 89.0624 90.967 88.7804 90.2331 88.7696C82.422 88.3468 74.6073 89.5348 67.2689 92.2605C64.1581 93.1865 61.3428 94.9164 59.1037 97.2776C54.5961 102.507 54.9711 109.457 55.2734 111.83L55.7381 124.931C55.9991 125.633 56.4677 126.237 57.0808 126.662C57.6939 127.087 58.422 127.313 59.1667 127.309L59.7405 127.317C60.5112 127.136 61.1956 126.692 61.6773 126.06C62.159 125.428 62.4082 124.648 62.3824 123.853C62.4587 118.547 62.5823 113.162 62.7531 107.699C62.757 106.649 62.9672 105.611 63.3716 104.643C63.7761 103.675 64.3668 102.798 65.1097 102.061V102.061C66.2692 100.982 67.7054 100.252 69.2559 99.951C72.5502 99.2819 86.129 96.2133 90.9013 94.5903C91.5777 94.3413 93.3621 92.7152 93.1623 91.4785Z" fill="#202123"/>
</svg>
