<svg width="485" height="279" viewBox="0 0 485 279" fill="none" xmlns="http://www.w3.org/2000/svg">
<path d="M36 255.779L36 189.259C36 183.09 38.4346 177.174 42.7681 172.812C47.1017 168.45 52.9792 166 59.1078 166L427.159 166C433.217 166 439.026 168.422 443.31 172.734C447.594 177.045 450 182.893 450 188.991V256.009C450 262.107 447.594 267.955 443.31 272.266C439.026 276.578 433.217 279 427.159 279H59.1078C52.9858 279 47.114 276.555 42.7816 272.201C38.4491 267.847 36.0101 261.941 36 255.779Z" fill="#E24236"/>
<path d="M0 104.601L0 144.399C0 156.329 9.74026 166 21.7555 166L437.244 166C449.26 166 459 156.329 459 144.399V104.601C459 92.6712 449.26 83 437.244 83L21.7555 83C9.74026 83 0 92.6712 0 104.601Z" fill="#E97F31"/>
<path d="M27 21.6012L27 61.3988C27 73.3288 36.7191 83 48.7082 83L463.292 83C475.281 83 485 73.3288 485 61.3988V21.6012C485 9.6712 475.281 0 463.292 0L48.7082 0C36.7191 0 27 9.6712 27 21.6012Z" fill="#77C3A9"/>
</svg>
