<svg width="451" height="263" viewBox="0 0 451 263" fill="none" xmlns="http://www.w3.org/2000/svg">
<path d="M34.5796 251.796L34.5796 168.488C34.5796 167.002 34.8668 165.531 35.4247 164.159C35.9827 162.787 36.8005 161.54 37.8315 160.489C38.8625 159.439 40.0865 158.606 41.4335 158.037C42.7806 157.469 44.2243 157.176 45.6824 157.176L407.034 157.176C408.478 157.176 409.908 157.466 411.242 158.029C412.577 158.592 413.789 159.417 414.81 160.458C415.831 161.498 416.641 162.733 417.194 164.092C417.747 165.452 418.031 166.909 418.031 168.38V251.796C418.031 254.768 416.872 257.617 414.81 259.719C412.748 261.82 409.951 263 407.034 263H45.6824C42.756 263 39.9478 261.823 37.8687 259.725C35.7895 257.627 34.6075 254.778 34.5796 251.796V251.796Z" fill="#E24236"/>
<path d="M0.954102 89.5545L0.954102 145.716C0.954102 151.963 5.92499 157.027 12.0569 157.027L414.471 157.027C420.603 157.027 425.574 151.963 425.574 145.716V89.5545C425.574 83.3074 420.603 78.2431 414.471 78.2431L12.0569 78.2431C5.92499 78.2431 0.954102 83.3074 0.954102 89.5545Z" fill="#E97F31"/>
<path d="M25.627 11.3123L25.627 67.4738C25.627 73.7209 30.5978 78.7852 36.7297 78.7852L439.144 78.7852C445.276 78.7852 450.247 73.7209 450.247 67.4738V11.3123C450.247 5.0652 445.276 0.000915527 439.144 0.000915527L36.7297 0.000915527C30.5978 0.000915527 25.627 5.0652 25.627 11.3123Z" fill="#77C3A9"/>
</svg>
