<svg width="251" height="399" viewBox="0 0 251 399" fill="none" xmlns="http://www.w3.org/2000/svg">
<path d="M71.6938 396.285L16.0756 371.373C9.86175 368.59 5.00815 363.453 2.58254 357.091C0.156933 350.73 0.358014 343.665 3.14149 337.452L145.542 19.5873C148.961 11.9544 155.273 5.99246 163.089 3.0129C170.904 0.0333131 179.584 0.280226 187.217 3.69938L232.129 23.8158C239.763 27.235 245.725 33.5463 248.705 41.3613C251.685 49.1762 251.438 57.8547 248.018 65.4876L105.618 383.352C102.835 389.565 97.6967 394.419 91.3347 396.844C84.9727 399.269 77.9076 399.068 71.6938 396.285Z" fill="#E97F31"/>
</svg>
