<svg width="261" height="409" viewBox="0 0 261 409" fill="none" xmlns="http://www.w3.org/2000/svg">
<path d="M88.8846 407.322L8.01437 371.028C5.10223 369.722 2.82758 367.309 1.6908 364.322C0.554022 361.335 0.648272 358.018 1.95276 355.1L155.959 10.656C157.897 6.32133 161.475 2.93553 165.905 1.24345C170.335 -0.44862 175.254 -0.308405 179.58 1.63331L249.784 33.1397C254.111 35.0814 257.49 38.6656 259.179 43.1037C260.868 47.5417 260.728 52.4702 258.79 56.8049L104.846 401.109C104.213 402.574 103.296 403.898 102.149 405.005C101.001 406.112 99.646 406.979 98.1611 407.557C96.6763 408.135 95.0917 408.412 93.4993 408.372C91.9069 408.331 90.3383 407.974 88.8846 407.322V407.322Z" fill="#E97F31"/>
</svg>
