<svg width="113" height="409" viewBox="0 0 113 409" fill="none" xmlns="http://www.w3.org/2000/svg">
<path d="M113 408.949H0.648434L0.648434 12.3927C0.648434 9.19582 1.91236 6.12984 4.16221 3.86929C6.41206 1.60873 9.46351 0.338783 12.6453 0.338783H101.003C104.185 0.338783 107.236 1.60873 109.486 3.86929C111.736 6.12984 113 9.19582 113 12.3927L113 408.949V408.949Z" fill="#77C3A9"/>
<path d="M59.02 303.172L59.02 307.227L72.9185 307.227L72.9185 314.258L59.02 314.258L59.02 318.406L72.9185 325.836L72.9185 334.602L54.6138 323.961L38.7935 334.086L38.7935 325.344L52.5513 317.75L52.5513 314.258L38.7935 314.258L38.7935 307.227L52.5513 307.227L52.5513 303.805L38.7935 296.398L38.7935 287.68L54.5903 297.617L72.9185 287.141L72.9185 295.93L59.02 303.172ZM57.2856 277.156L57.2856 273.5C54.1294 273 51.645 271.711 49.8325 269.633C48.0044 267.539 47.0903 264.906 47.0903 261.734C47.0903 258.312 48.1372 255.523 50.231 253.367C52.3247 251.195 55.1685 249.984 58.7622 249.734L60.4966 249.687C64.3872 249.687 67.5122 250.773 69.8716 252.945C72.2153 255.117 73.3872 258.031 73.3872 261.687C73.3872 264.984 72.4341 267.687 70.5278 269.797C68.6216 271.891 66.0356 273.148 62.77 273.57L62.77 277.156L72.9185 277.156L72.9185 283.953L47.5591 283.953L47.5591 277.156L57.2856 277.156ZM60.4966 266.937C62.9028 266.937 64.7466 266.484 66.0278 265.578C67.2935 264.672 67.9263 263.375 67.9263 261.687C67.9263 260.016 67.2935 258.727 66.0278 257.82C64.7622 256.914 62.7544 256.461 60.0044 256.461C57.645 256.461 55.8169 256.922 54.52 257.844C53.2231 258.766 52.5747 260.062 52.5747 261.734C52.5747 263.391 53.2231 264.672 54.52 265.578C55.8013 266.484 57.7935 266.937 60.4966 266.937ZM47.5591 223.812L72.9185 223.812L72.9185 230.586L53.0435 230.586L53.0435 236.562L60.8716 236.984C65.0435 237.25 68.0825 238.07 69.9888 239.445C71.895 240.82 72.8716 242.867 72.9185 245.586L72.9185 247.883L67.4106 247.953L67.3403 247.109C67.2466 245.891 66.5278 245 65.1841 244.437C63.8403 243.875 61.5513 243.523 58.3169 243.383L47.5591 242.914L47.5591 223.812ZM54.9888 211.344L54.9888 206.492C54.9888 204.305 55.356 202.383 56.0903 200.727C56.8247 199.07 57.8794 197.805 59.2544 196.93C60.6138 196.039 62.1997 195.594 64.0122 195.594C66.6841 195.594 68.8403 196.586 70.481 198.57C72.106 200.539 72.9185 203.227 72.9185 206.633L72.9185 218.141L47.5591 218.141L47.5591 211.344L54.9888 211.344ZM60.4263 211.344L67.5044 211.344L67.5044 206.539C67.5044 205.195 67.1919 204.164 66.5669 203.445C65.9419 202.727 65.0903 202.367 64.0122 202.367C62.9185 202.367 62.0513 202.719 61.4106 203.422C60.7544 204.125 60.4263 205.164 60.4263 206.539L60.4263 211.344ZM72.9184 179.375L38.7934 179.375L38.7934 167.422C38.7934 163.281 39.5903 160.141 41.1841 158C42.7622 155.859 45.0825 154.789 48.145 154.789C49.8169 154.789 51.2934 155.219 52.5747 156.078C53.8403 156.937 54.77 158.133 55.3638 159.664C55.8013 157.914 56.6841 156.539 58.0122 155.539C59.3403 154.523 60.9653 154.016 62.8872 154.016C66.1684 154.016 68.6528 155.062 70.3403 157.156C72.0278 159.25 72.8872 162.234 72.9184 166.109L72.9184 179.375ZM58.0591 172.344L67.27 172.344L67.27 166.32C67.27 164.664 66.8794 163.375 66.0981 162.453C65.3013 161.516 64.2075 161.047 62.8169 161.047C59.6919 161.047 58.1059 162.664 58.0591 165.898L58.0591 172.344ZM53.0903 172.344L53.0903 167.141C53.0278 163.594 51.6138 161.82 48.8481 161.82C47.3013 161.82 46.1919 162.273 45.52 163.18C44.8325 164.07 44.4888 165.484 44.4888 167.422L44.4888 172.344L53.0903 172.344ZM73.3872 137.492C73.3872 141.211 72.2466 144.242 69.9653 146.586C67.6841 148.914 64.645 150.078 60.8481 150.078L60.1919 150.078C57.645 150.078 55.3716 149.586 53.3716 148.602C51.3559 147.617 49.8091 146.227 48.7309 144.43C47.6372 142.617 47.0903 140.555 47.0903 138.242C47.0903 134.773 48.1841 132.047 50.3716 130.062C52.5591 128.062 55.6606 127.062 59.6763 127.062L62.4419 127.062L62.4419 143.211C64.0981 142.992 65.4263 142.336 66.4263 141.242C67.4263 140.133 67.9263 138.734 67.9263 137.047C67.9263 134.437 66.9809 132.398 65.0903 130.93L68.8169 127.602C70.2544 128.617 71.3794 129.992 72.1919 131.727C72.9888 133.461 73.3872 135.383 73.3872 137.492ZM52.5747 138.266C52.5747 139.609 53.0278 140.703 53.9341 141.547C54.8403 142.375 56.1372 142.906 57.8247 143.141L57.8247 133.719L57.2856 133.719C55.7856 133.75 54.6294 134.156 53.8169 134.937C52.9888 135.719 52.5747 136.828 52.5747 138.266ZM60.4731 100.367C64.3794 100.367 67.5122 101.258 69.8716 103.039C72.2153 104.805 73.3872 107.195 73.3872 110.211C73.3872 112.773 72.4966 114.844 70.7153 116.422L82.6684 116.422L82.6684 123.195L47.5591 123.195L47.5591 116.914L50.0434 116.68C48.0747 115.039 47.0903 112.898 47.0903 110.258C47.0903 107.133 48.2466 104.703 50.5591 102.969C52.8716 101.234 56.0591 100.367 60.1216 100.367L60.4731 100.367ZM59.9809 107.141C57.6216 107.141 55.8013 107.562 54.52 108.406C53.2388 109.234 52.5981 110.445 52.5981 112.039C52.5981 114.164 53.4106 115.625 55.0356 116.422L65.4184 116.422C67.0903 115.594 67.9263 114.117 67.9263 111.992C67.9263 108.758 65.2778 107.141 59.9809 107.141ZM72.9184 74.1641L72.9184 80.9609L63.1684 80.9609L63.1684 89.375L72.9184 89.375L72.9184 96.1484L47.5591 96.1484L47.5591 89.375L57.7309 89.375L57.7309 80.9609L47.5591 80.9609L47.5591 74.1641L72.9184 74.1641Z" fill="white"/>
</svg>
