<svg width="113" height="409" viewBox="0 0 113 409" fill="none" xmlns="http://www.w3.org/2000/svg">
<path d="M113 408.951H0.648438L0.648437 12.3947C0.648437 9.19778 1.91236 6.13181 4.16221 3.87125C6.41206 1.61069 9.46351 0.340729 12.6453 0.340729H101.003C104.185 0.340729 107.236 1.61069 109.486 3.87125C111.736 6.13181 113 9.19778 113 12.3947L113 408.951Z" fill="#77C3A9"/>
<path d="M70 311.356L70 305.328L55.744 305.328L70 295.824L70 288.608L53.104 300.268L37.44 288.872L37.44 295.824L51.564 305.328L37.44 305.328L37.44 311.356L51.564 311.356L37.44 320.86L37.44 327.812L53.28 316.416L70 328.076L70 320.86L55.744 311.356L70 311.356ZM54.424 279.393L45.624 279.393L45.624 285.245L70 285.245L70 279.393L59.968 279.393L59.968 275.961C66.04 275.081 70.792 270.109 70.792 262.981C70.792 255.413 65.028 250.045 57.856 250.045C50.728 250.045 44.832 255.369 44.832 262.981C44.832 269.493 48.836 274.465 54.424 275.961L54.424 279.393ZM50.376 262.981C50.376 258.625 53.896 255.897 57.856 255.897C61.816 255.897 65.248 258.669 65.248 262.981C65.248 267.293 61.86 270.109 57.856 270.109C53.852 270.109 50.376 267.293 50.376 262.981ZM45.624 233.506L45.624 238.786L70 248.73L70 242.218L53.544 236.146L70 230.074L70 223.562L45.624 233.506ZM45.624 221.007L70 221.007L70 209.919C70 205.211 67.052 201.735 62.08 201.735C57.944 201.735 54.16 204.243 54.16 209.919L54.16 215.155L45.624 215.155L45.624 221.007ZM59.352 215.155L59.352 210.535C59.352 208.159 60.848 207.587 62.08 207.587C64.764 207.587 64.808 210.051 64.808 210.535L64.808 215.155L59.352 215.155ZM70 187.262L70 179.122C70 168.694 64.808 166.142 60.1 166.142C56.448 166.142 53.412 168.166 52.224 171.686C51.74 170.806 50.068 168.122 46.02 168.122C37.484 168.122 37.44 177.406 37.44 179.43L37.44 187.262L70 187.262ZM64.148 181.234L55.832 181.234L55.832 177.318C55.832 172.61 58.824 172.17 60.056 172.17C64.104 172.17 64.148 176.614 64.148 177.318L64.148 181.234ZM49.98 181.234L43.292 181.234L43.292 178.418C43.292 177.098 43.468 174.15 46.636 174.15C47.472 174.15 49.98 174.458 49.98 178.418L49.98 181.234ZM60.408 138.022C59.528 137.89 58.692 137.89 57.812 137.89C50.552 137.89 44.832 142.994 44.832 150.43C44.832 159.23 52.4 163.41 57.988 163.41C63.576 163.41 70.792 159.274 70.792 150.518C70.792 149.374 70.704 141.938 62.96 138.682L62.96 145.282C64.72 146.734 65.248 148.846 65.248 150.738C65.248 153.862 63.4 156.37 60.408 157.118L60.408 138.022ZM55.216 157.206C52.312 156.238 50.376 153.642 50.376 150.43C50.376 147.438 52.136 144.842 55.216 144.006L55.216 157.206ZM78.14 134.21L78.14 128.358L67.36 128.358L67.36 128.27C70.264 125.982 70.792 122.902 70.792 120.922C70.792 113.178 64.5 108.69 57.812 108.69C49.936 108.69 44.832 114.278 44.832 120.922C44.832 122.814 45.404 126.686 48.792 128.754L48.792 128.842L45.624 128.842L45.624 134.21L78.14 134.21ZM50.376 121.538C50.376 116.61 54.512 114.542 57.768 114.542C62.08 114.542 65.248 117.578 65.248 121.758C65.248 125.718 62.476 128.71 57.812 128.71C53.544 128.71 50.376 125.806 50.376 121.538ZM45.624 105.163L70 105.163L70 99.3111L59.792 99.3111L59.792 90.2471L70 90.2471L70 84.3951L45.624 84.3951L45.624 90.2471L54.6 90.2471L54.6 99.3111L45.624 99.3111L45.624 105.163Z" fill="white"/>
</svg>
