<svg width="280" height="369" viewBox="0 0 280 369" fill="none" xmlns="http://www.w3.org/2000/svg">
<g filter="url(#filter0_d)">
<path d="M181.277 339.002L228.927 317.631C244.269 310.75 251.134 292.72 244.262 277.359L133.416 29.5989C126.544 14.2382 108.536 7.36387 93.1941 14.2447L45.5439 35.6162C30.2023 42.497 23.3365 60.5273 30.2088 75.888L141.055 323.648C147.927 339.009 165.935 345.883 181.277 339.002Z" fill="#E97F31"/>
<path d="M179.334 311.406L197.558 292.503L171.52 295.765L167.393 287.504L197.921 272.253L201.074 278.564L192.729 282.733L178.011 289.3L204.876 286.175L207.034 290.494L188.412 310.067L202.481 302.253L210.826 298.084L213.968 304.374L183.441 319.625L179.334 311.406ZM188.808 254.012C188.403 254.564 187.826 255.105 187.078 255.636C189.447 256.287 191.217 257.786 192.391 260.134C193.501 262.357 193.78 264.523 193.227 266.633C192.667 268.729 191.409 270.266 189.452 271.244C187.048 272.445 184.759 272.479 182.587 271.346C180.407 270.2 178.469 267.945 176.772 264.584L175.378 261.795L174.079 262.445C173.03 262.968 172.328 263.66 171.971 264.519C171.607 265.365 171.715 266.367 172.295 267.528C172.805 268.548 173.451 269.23 174.233 269.572C175.009 269.901 175.823 269.852 176.676 269.426L179.703 275.486C178.389 276.142 176.97 276.344 175.447 276.092C173.924 275.84 172.478 275.13 171.108 273.963C169.725 272.802 168.573 271.3 167.651 269.455C166.254 266.659 165.853 264.091 166.448 261.75C167.022 259.403 168.581 257.593 171.125 256.322L180.958 251.41C183.104 250.32 184.582 249.206 185.393 248.068L185.749 247.89L188.808 254.012ZM187.097 261.128C186.65 260.234 186.043 259.507 185.274 258.948C184.492 258.395 183.674 258.105 182.822 258.077L178.922 260.025L180.053 262.289C181.568 265.323 183.423 266.413 185.618 265.562L185.985 265.404C186.739 265.027 187.229 264.451 187.453 263.675C187.677 262.9 187.558 262.051 187.097 261.128ZM162.539 229.277C166.033 227.531 169.234 226.928 172.141 227.467C175.026 227.999 177.143 229.614 178.491 232.312C179.636 234.604 179.765 236.854 178.876 239.062L189.569 233.72L192.597 239.779L161.189 255.47L158.381 249.851L160.499 248.531C158.005 247.943 156.167 246.468 154.987 244.106C153.591 241.31 153.539 238.62 154.833 236.035C156.126 233.45 158.59 231.25 162.224 229.434L162.539 229.277ZM165.126 235.556C163.015 236.611 161.575 237.802 160.806 239.129C160.03 240.443 159.998 241.812 160.71 243.238C161.66 245.139 163.04 246.083 164.85 246.069L174.138 241.429C175.263 239.941 175.351 238.247 174.402 236.346C172.956 233.452 169.864 233.189 165.126 235.556ZM142.271 217.604L139.244 211.545L161.93 200.212L164.957 206.271L150.952 213.268L168.749 213.861L171.787 219.941L149.101 231.275L146.063 225.194L160.048 218.208L142.271 217.604ZM127.481 187.999L150.167 176.666L153.184 182.704L145.342 186.622L147.259 190.459L157.279 190.902L160.349 197.046L149.008 196.528C149.056 198.198 148.727 199.673 148.021 200.951C147.308 202.216 146.266 203.19 144.896 203.874C142.702 204.971 140.483 205.022 138.241 204.029C135.977 203.029 134.105 201.118 132.624 198.294L127.481 187.999ZM143.181 192.889L141.107 188.738L135.362 191.608L137.332 195.55C137.869 196.626 138.592 197.356 139.5 197.741C140.395 198.132 141.247 198.126 142.058 197.721C142.869 197.316 143.379 196.659 143.589 195.751C143.799 194.842 143.663 193.889 143.181 192.889ZM124.62 156.732L126.432 160.359L138.907 154.127L142.049 160.417L111.522 175.668L108.38 169.378L120.603 163.271L119.168 160.399L103.216 159.041L99.382 151.368L118.531 153.565L129.417 135.131L133.167 142.637L124.62 156.732ZM111.138 133.521L109.504 130.251C106.457 131.214 103.658 131.171 101.108 130.122C98.5369 129.066 96.5426 127.119 95.125 124.282C93.5958 121.221 93.2858 118.258 94.1951 115.393C95.0975 112.514 97.1003 110.16 100.203 108.33L101.734 107.513C105.214 105.775 108.495 105.349 111.577 106.238C114.644 107.133 116.995 109.217 118.629 112.487C120.102 115.437 120.458 118.281 119.695 121.02C118.925 123.745 117.174 126.026 114.441 127.862L116.044 131.07L125.123 126.535L128.16 132.615L105.474 143.949L102.437 137.868L111.138 133.521ZM109.443 122.945C111.596 121.869 113.043 120.64 113.784 119.257C114.511 117.88 114.498 116.437 113.743 114.928C112.996 113.432 111.854 112.562 110.317 112.317C108.78 112.072 106.781 112.564 104.321 113.793C102.21 114.847 100.781 116.077 100.033 117.481C99.2845 118.885 99.284 120.335 100.031 121.831C100.771 123.312 101.924 124.169 103.489 124.4C105.04 124.638 107.025 124.153 109.443 122.945ZM89.6568 83.3913C93.1513 81.6455 96.3518 81.0422 99.2585 81.5812C102.144 82.1132 104.261 83.7281 105.609 86.4258C106.754 88.7181 106.882 90.9682 105.994 93.1761L116.687 87.834L119.714 93.8934L88.3064 109.584L85.4993 103.965L87.617 102.645C85.1226 102.057 83.2853 100.582 82.1051 98.2202C80.7085 95.4247 80.657 92.7344 81.9506 90.1493C83.2442 87.5643 85.7081 85.364 89.3423 83.5484L89.6568 83.3913ZM92.2437 89.6706C90.133 90.7251 88.6932 91.916 87.9241 93.2434C87.148 94.5568 87.1161 95.9264 87.8284 97.3521C88.7781 99.2531 90.1578 100.197 91.9676 100.184L101.256 95.5433C102.381 94.0553 102.469 92.3608 101.52 90.4598C100.074 87.5664 96.9821 87.3034 92.2437 89.6706ZM69.3894 71.7186L66.3622 65.6592L89.0481 54.3257L92.0752 60.3851L78.0695 67.3821L95.867 67.975L98.9047 74.0553L76.2188 85.3888L73.1812 79.3085L87.1659 72.3219L69.3894 71.7186Z" fill="white"/>
</g>
<defs>
<filter id="filter0_d" x="-9.23438" y="-9.21484" width="298.94" height="409.675" filterUnits="userSpaceOnUse" color-interpolation-filters="sRGB">
<feFlood flood-opacity="0" result="BackgroundImageFix"/>
<feColorMatrix in="SourceAlpha" type="matrix" values="0 0 0 0 0 0 0 0 0 0 0 0 0 0 0 0 0 0 127 0"/>
<feOffset dx="3" dy="19"/>
<feGaussianBlur stdDeviation="15"/>
<feColorMatrix type="matrix" values="0 0 0 0 0.913725 0 0 0 0 0.498039 0 0 0 0 0.192157 0 0 0 1 0"/>
<feBlend mode="normal" in2="BackgroundImageFix" result="effect1_dropShadow"/>
<feBlend mode="normal" in="SourceGraphic" in2="effect1_dropShadow" result="shape"/>
</filter>
</defs>
</svg>
