<svg width="114" height="485" viewBox="0 0 114 485" fill="none" xmlns="http://www.w3.org/2000/svg">
<path d="M28.775 2.47852H84.9496C92.4851 2.47852 99.712 5.45452 105.04 10.7519C110.369 16.0492 113.362 23.234 113.362 30.7256V485.001H0.362305V30.7256C0.362305 23.234 3.35578 16.0492 8.6842 10.7519C14.0126 5.45452 21.2395 2.47852 28.775 2.47852V2.47852Z" fill="#E24236"/>
<path d="M44.5703 373.943L44.5703 384.396L73 384.396L73 391.428L44.5703 391.428L44.5703 401.74L38.875 401.74L38.875 373.943L44.5703 373.943ZM60.0859 376.287C57.5703 376.287 55.3281 375.803 53.3594 374.834C51.3906 373.865 49.8672 372.475 48.7891 370.662C47.7109 368.834 47.1719 366.717 47.1719 364.311C47.1719 360.889 48.2187 358.1 50.3125 355.943C52.4062 353.771 55.25 352.561 58.8437 352.311L60.5781 352.264C64.4687 352.264 67.5937 353.35 69.9531 355.521C72.2969 357.693 73.4687 360.607 73.4687 364.264C73.4687 367.92 72.2969 370.842 69.9531 373.029C67.6094 375.201 64.4219 376.287 60.3906 376.287L60.0859 376.287ZM60.5781 369.514C62.9844 369.514 64.8281 369.061 66.1094 368.154C67.375 367.248 68.0078 365.951 68.0078 364.264C68.0078 362.623 67.3828 361.342 66.1328 360.42C64.8672 359.498 62.8516 359.037 60.0859 359.037C57.7266 359.037 55.8984 359.498 54.6016 360.42C53.3047 361.342 52.6562 362.639 52.6562 364.311C52.6562 365.967 53.3047 367.248 54.6016 368.154C55.8828 369.061 57.875 369.514 60.5781 369.514ZM65.0078 332.646L47.6406 326.014L47.6406 317.529L73 317.529L73 324.303L57.4375 324.303L73 330.373L73 334.92L57.6953 340.873L73 340.873L73 347.646L47.6406 347.646L47.6406 339.232L65.0078 332.646ZM73 296.928C72.3906 297.24 71.6328 297.467 70.7266 297.607C72.5547 299.248 73.4687 301.381 73.4687 304.006C73.4687 306.49 72.75 308.553 71.3125 310.193C69.875 311.818 68.0625 312.631 65.875 312.631C63.1875 312.631 61.125 311.639 59.6875 309.654C58.25 307.654 57.5234 304.771 57.5078 301.006L57.5078 297.889L56.0547 297.889C54.8828 297.889 53.9453 298.193 53.2422 298.803C52.5391 299.396 52.1875 300.342 52.1875 301.639C52.1875 302.779 52.4609 303.678 53.0078 304.334C53.5547 304.975 54.3047 305.295 55.2578 305.295L55.2578 312.068C53.7891 312.068 52.4297 311.615 51.1797 310.709C49.9297 309.803 48.9531 308.521 48.25 306.865C47.5312 305.209 47.1719 303.35 47.1719 301.287C47.1719 298.162 47.9609 295.686 49.5391 293.857C51.1016 292.014 53.3047 291.092 56.1484 291.092L67.1406 291.092C69.5469 291.076 71.3672 290.74 72.6016 290.084L73 290.084L73 296.928ZM68.2891 302.529C68.2891 301.529 68.0703 300.607 67.6328 299.764C67.1797 298.92 66.5781 298.295 65.8281 297.889L61.4687 297.889L61.4687 300.42C61.4687 303.811 62.6406 305.615 64.9844 305.834L65.3828 305.857C66.2266 305.857 66.9219 305.561 67.4687 304.967C68.0156 304.373 68.2891 303.561 68.2891 302.529ZM68.0078 275.342C68.0078 274.092 67.6641 273.076 66.9766 272.295C66.2891 271.514 65.375 271.107 64.2344 271.076L64.2344 264.725C65.9531 264.74 67.5312 265.209 68.9687 266.131C70.3906 267.053 71.5 268.318 72.2969 269.928C73.0781 271.521 73.4687 273.287 73.4687 275.225C73.4687 278.85 72.3203 281.709 70.0234 283.803C67.7109 285.896 64.5234 286.943 60.4609 286.943L60.0156 286.943C56.1094 286.943 52.9922 285.904 50.6641 283.826C48.3359 281.748 47.1719 278.896 47.1719 275.271C47.1719 272.1 48.0781 269.561 49.8906 267.654C51.6875 265.732 54.0859 264.756 57.0859 264.725L57.0859 271.076C55.7734 271.107 54.7109 271.514 53.8984 272.295C53.0703 273.076 52.6562 274.107 52.6562 275.389C52.6562 276.967 53.2344 278.162 54.3906 278.975C55.5312 279.771 57.3906 280.17 59.9687 280.17L60.6719 280.17C63.2812 280.17 65.1562 279.771 66.2969 278.975C67.4375 278.178 68.0078 276.967 68.0078 275.342ZM61.6562 242.998C63.8594 242.795 65.4453 242.146 66.4141 241.053C67.3672 239.959 67.8437 238.373 67.8437 236.295C67.8437 233.998 67.0859 232.295 65.5703 231.186C64.0391 230.076 61.7812 229.436 58.7969 229.264L58.7969 240.045L53.1016 240.045L53.1016 229.287C50.0547 229.475 47.7969 230.162 46.3281 231.35C44.8437 232.521 44.1016 234.201 44.1016 236.389C44.1016 238.514 44.6094 240.107 45.625 241.17C46.625 242.232 48.2422 242.85 50.4766 243.021L50.4766 250.053C46.7422 249.709 43.7969 248.35 41.6406 245.975C39.4844 243.584 38.4062 240.389 38.4062 236.389C38.4062 233.545 39.0781 231.053 40.4219 228.912C41.75 226.756 43.6641 225.1 46.1641 223.943C48.6484 222.787 51.5469 222.209 54.8594 222.209L57.0859 222.209C62.1172 222.209 66.1094 223.467 69.0625 225.982C72 228.482 73.4687 231.92 73.4687 236.295C73.4687 240.326 72.4062 243.561 70.2812 245.998C68.1406 248.42 65.2656 249.764 61.6562 250.029L61.6562 242.998ZM67.5391 217.334C65.9141 215.803 64.3047 214.764 62.7109 214.217C61.1172 213.67 58.8594 213.365 55.9375 213.303L47.6406 213.115L47.6406 194.459L67.5391 194.459L67.5391 190.803L80.6172 190.803L80.6172 197.576L73 197.576L73 212.6L80.6172 212.6L80.6172 219.514L67.5391 219.514L67.5391 217.334ZM67.5391 209.342L67.5391 201.209L53.2422 201.209L53.2422 206.482L56.2891 206.529C60.9453 206.67 64.6953 207.607 67.5391 209.342ZM47.6406 172.498L47.6406 165.725L73 165.725L73 172.498L57.3437 172.498L73 180.982L73 187.779L47.6406 187.779L47.6406 180.982L63.2734 180.982L47.6406 172.498ZM68.0078 149.998C68.0078 148.748 67.6641 147.732 66.9766 146.951C66.2891 146.17 65.375 145.764 64.2344 145.732L64.2344 139.381C65.9531 139.396 67.5312 139.865 68.9687 140.787C70.3906 141.709 71.5 142.975 72.2969 144.584C73.0781 146.178 73.4687 147.943 73.4687 149.881C73.4687 153.506 72.3203 156.365 70.0234 158.459C67.7109 160.553 64.5234 161.6 60.4609 161.6L60.0156 161.6C56.1094 161.6 52.9922 160.561 50.6641 158.482C48.3359 156.404 47.1719 153.553 47.1719 149.928C47.1719 146.756 48.0781 144.217 49.8906 142.311C51.6875 140.389 54.0859 139.412 57.0859 139.381L57.0859 145.732C55.7734 145.764 54.7109 146.17 53.8984 146.951C53.0703 147.732 52.6562 148.764 52.6562 150.045C52.6562 151.623 53.2344 152.818 54.3906 153.631C55.5312 154.428 57.3906 154.826 59.9687 154.826L60.6719 154.826C63.2812 154.826 65.1562 154.428 66.2969 153.631C67.4375 152.834 68.0078 151.623 68.0078 149.998ZM60.0859 136.568C57.5703 136.568 55.3281 136.084 53.3594 135.115C51.3906 134.146 49.8672 132.756 48.789 130.943C47.7109 129.115 47.1719 126.998 47.1719 124.592C47.1719 121.17 48.2187 118.381 50.3125 116.225C52.4062 114.053 55.25 112.842 58.8437 112.592L60.5781 112.545C64.4687 112.545 67.5937 113.631 69.9531 115.803C72.2969 117.975 73.4687 120.889 73.4687 124.545C73.4687 128.201 72.2969 131.123 69.9531 133.311C67.6094 135.482 64.4219 136.568 60.3906 136.568L60.0859 136.568ZM60.5781 129.795C62.9844 129.795 64.8281 129.342 66.1094 128.436C67.375 127.529 68.0078 126.232 68.0078 124.545C68.0078 122.904 67.3828 121.623 66.1328 120.701C64.8672 119.779 62.8515 119.318 60.0859 119.318C57.7265 119.318 55.8984 119.779 54.6015 120.701C53.3047 121.623 52.6562 122.92 52.6562 124.592C52.6562 126.248 53.3047 127.529 54.6015 128.436C55.8828 129.342 57.875 129.795 60.5781 129.795ZM73 86.3887L73 93.1855L63.25 93.1855L63.25 101.6L73 101.6L73 108.373L47.6406 108.373L47.6406 101.6L57.8125 101.6L57.8125 93.1855L47.6406 93.1855L47.6406 86.3887L73 86.3887Z" fill="white"/>
</svg>
