<svg width="240" height="360" viewBox="0 0 240 360" fill="none" xmlns="http://www.w3.org/2000/svg">
<path d="M147.539 354.518L228.631 317.141C234.712 314.338 237.433 306.994 234.71 300.737L108.964 11.8998C106.241 5.64288 99.1029 2.8428 93.0221 5.64557L11.9298 43.0223C5.84895 45.8251 3.12757 53.1694 5.85149 59.4262L131.597 348.264C134.32 354.521 141.458 357.321 147.539 354.518Z" fill="#E97F31"/>
<path d="M155.825 307.275L174.749 288.824L148.797 291.265L145.085 282.81L176.035 268.437L178.871 274.897L170.411 278.826L155.524 284.963L182.291 282.687L184.232 287.108L164.882 306.221L179.182 298.805L187.642 294.877L190.468 301.315L159.518 315.688L155.825 307.275ZM167.839 249.766C167.412 250.309 166.816 250.836 166.051 251.346C168.368 252.078 170.054 253.646 171.11 256.05C172.108 258.325 172.285 260.516 171.641 262.624C170.99 264.717 169.673 266.224 167.689 267.146C165.252 268.278 162.982 268.238 160.881 267.026C158.773 265.8 156.955 263.467 155.427 260.025L154.175 257.171L152.857 257.783C151.794 258.277 151.066 258.951 150.673 259.805C150.274 260.644 150.335 261.658 150.856 262.846C151.315 263.89 151.924 264.598 152.684 264.968C153.437 265.324 154.246 265.302 155.111 264.9L157.833 271.102C156.501 271.721 155.086 271.879 153.588 271.575C152.09 271.272 150.69 270.51 149.386 269.29C148.068 268.076 146.995 266.525 146.166 264.636C144.91 261.775 144.63 259.175 145.327 256.836C146.003 254.49 147.63 252.718 150.21 251.52L160.179 246.89C162.355 245.863 163.871 244.788 164.727 243.667L165.088 243.5L167.839 249.766ZM165.818 256.879C165.416 255.964 164.847 255.212 164.111 254.623C163.361 254.042 162.564 253.723 161.721 253.667L157.767 255.503L158.784 257.821C160.147 260.925 161.936 262.084 164.149 261.297L164.52 261.151C165.285 260.796 165.797 260.231 166.054 259.457C166.311 258.683 166.233 257.824 165.818 256.879ZM142.938 223.997C146.481 222.352 149.681 221.848 152.537 222.485C155.372 223.115 157.396 224.81 158.608 227.572C159.638 229.918 159.662 232.189 158.681 234.384L169.522 229.349L172.245 235.552L140.402 250.339L137.877 244.588L140.036 243.327C137.591 242.654 135.838 241.108 134.776 238.69C133.52 235.829 133.592 233.117 134.992 230.555C136.393 227.993 138.935 225.856 142.62 224.145L142.938 223.997ZM145.215 230.407C143.075 231.4 141.593 232.553 140.77 233.866C139.941 235.163 139.847 236.542 140.488 238.001C141.342 239.947 142.666 240.943 144.46 240.988L153.877 236.615C155.061 235.152 155.225 233.448 154.371 231.503C153.071 228.541 150.019 228.176 145.215 230.407ZM123.387 211.581L120.665 205.379L143.665 194.698L146.388 200.9L132.188 207.494L149.798 208.669L152.53 214.892L129.53 225.573L126.798 219.35L140.976 212.766L123.387 211.581ZM110.085 181.278L133.085 170.598L135.799 176.778L127.849 180.47L129.573 184.397L139.482 185.169L142.243 191.457L131.027 190.568C130.999 192.252 130.606 193.727 129.847 194.992C129.083 196.242 128.006 197.19 126.617 197.835C124.392 198.868 122.191 198.848 120.014 197.775C117.816 196.695 116.049 194.708 114.711 191.816L110.085 181.278ZM125.42 186.713L123.555 182.464L117.73 185.169L119.501 189.204C119.985 190.305 120.668 191.065 121.55 191.481C122.419 191.905 123.264 191.926 124.086 191.544C124.908 191.162 125.443 190.518 125.693 189.609C125.943 188.701 125.852 187.736 125.42 186.713ZM108.68 149.688L110.31 153.401L122.958 147.527L125.784 153.966L94.8337 168.338L92.0074 161.9L104.4 156.145L103.11 153.205L87.3629 151.32L83.9149 143.465L102.791 146.3L114.423 128.084L117.795 135.767L108.68 149.688ZM96.3815 125.869L94.9118 122.521C91.8482 123.393 89.0768 123.259 86.5975 122.119C84.0979 120.972 82.2106 118.947 80.9356 116.042C79.5601 112.909 79.3885 109.914 80.4208 107.058C81.4468 104.187 83.5392 101.881 86.6982 100.138L88.2524 99.3649C91.7811 97.7262 95.0519 97.4044 98.0648 98.3994C101.064 99.4009 103.298 101.576 104.767 104.923C106.093 107.942 106.315 110.819 105.434 113.553C104.546 116.273 102.707 118.514 99.9143 120.276L101.356 123.559L110.56 119.285L113.292 125.509L90.2918 136.19L87.5597 129.966L96.3815 125.869ZM95.1862 115.16C97.3686 114.147 98.8587 112.955 99.6565 111.586C100.44 110.223 100.493 108.769 99.8144 107.224C99.1424 105.693 98.0503 104.779 96.5381 104.482C95.026 104.185 93.0228 104.616 90.5286 105.774C88.3887 106.768 86.9159 107.96 86.1103 109.35C85.3046 110.741 85.2378 112.201 85.9098 113.732C86.5755 115.249 87.6787 116.149 89.2192 116.432C90.7455 116.723 92.7345 116.298 95.1862 115.16ZM77.3876 74.6735C80.9305 73.0282 84.1299 72.5243 86.9858 73.1615C89.8212 73.7911 91.845 75.4865 93.0572 78.2478C94.0872 80.5942 94.1116 82.865 93.1304 85.0602L103.972 80.0258L106.694 86.228L74.8509 101.015L72.3261 95.2639L74.4851 94.0029C72.04 93.3299 70.2868 91.7844 69.2254 89.3665C67.9692 86.5051 68.0413 83.7933 69.4415 81.2312C70.8418 78.6692 73.3842 76.5326 77.0688 74.8215L77.3876 74.6735ZM79.6639 81.0829C77.524 82.0767 76.0426 83.2296 75.2197 84.5419C74.3905 85.8398 74.2962 87.2184 74.9368 88.6777C75.791 90.6235 77.1151 91.619 78.9093 91.6642L88.3262 87.2912C89.5097 85.8288 89.6744 84.1246 88.8202 82.1789C87.5201 79.2173 84.468 78.852 79.6639 81.0829ZM57.8367 62.2573L55.114 56.0552L78.1144 45.3743L80.837 51.5764L66.6372 58.1705L84.2474 59.3452L86.9795 65.5688L63.9791 76.2497L61.247 70.0261L75.4256 63.4418L57.8367 62.2573Z" fill="white"/>
</svg>
