<svg width="113" height="492" viewBox="0 0 113 492" fill="none" xmlns="http://www.w3.org/2000/svg">
<path d="M12.0516 0.408203H100.812C102.395 0.408203 103.962 0.724206 105.424 1.33817C106.887 1.95213 108.215 2.85204 109.334 3.98649C110.453 5.12095 111.341 6.46775 111.947 7.94999C112.552 9.43223 112.864 11.0209 112.864 12.6252V491.999H0V12.6252C0 9.38508 1.26971 6.27763 3.52982 3.98649C5.78993 1.69535 8.8553 0.408203 12.0516 0.408203Z" fill="#E24236"/>
<path d="M41.6636 373.783L41.6636 384.236L70.0933 384.236L70.0933 391.268L41.6636 391.268L41.6636 401.58L35.9683 401.58L35.9683 373.783L41.6636 373.783ZM57.1792 376.127C54.6636 376.127 52.4214 375.643 50.4526 374.674C48.4839 373.705 46.9604 372.314 45.8823 370.502C44.8042 368.674 44.2651 366.557 44.2651 364.15C44.2651 360.729 45.312 357.939 47.4058 355.783C49.4995 353.611 52.3433 352.4 55.937 352.15L57.6714 352.104C61.562 352.104 64.687 353.189 67.0464 355.361C69.3901 357.533 70.562 360.447 70.562 364.104C70.562 367.76 69.3901 370.682 67.0464 372.869C64.7026 375.041 61.5151 376.127 57.4839 376.127L57.1792 376.127ZM57.6714 369.354C60.0776 369.354 61.9214 368.9 63.2026 367.994C64.4683 367.088 65.1011 365.791 65.1011 364.104C65.1011 362.463 64.4761 361.182 63.2261 360.26C61.9604 359.338 59.9448 358.877 57.1792 358.877C54.8198 358.877 52.9917 359.338 51.6948 360.26C50.3979 361.182 49.7495 362.479 49.7495 364.15C49.7495 365.807 50.3979 367.088 51.6948 367.994C52.9761 368.9 54.9683 369.354 57.6714 369.354ZM62.1011 332.486L44.7339 325.854L44.7339 317.369L70.0933 317.369L70.0933 324.143L54.5308 324.143L70.0933 330.213L70.0933 334.76L54.7886 340.713L70.0933 340.713L70.0933 347.486L44.7339 347.486L44.7339 339.072L62.1011 332.486ZM70.0933 296.768C69.4839 297.08 68.7261 297.307 67.8198 297.447C69.6479 299.088 70.562 301.221 70.562 303.846C70.562 306.33 69.8433 308.393 68.4058 310.033C66.9683 311.658 65.1558 312.471 62.9683 312.471C60.2808 312.471 58.2183 311.479 56.7808 309.494C55.3433 307.494 54.6167 304.611 54.6011 300.846L54.6011 297.729L53.1479 297.729C51.9761 297.729 51.0386 298.033 50.3354 298.643C49.6323 299.236 49.2808 300.182 49.2808 301.479C49.2808 302.619 49.5542 303.518 50.1011 304.174C50.6479 304.814 51.3979 305.135 52.3511 305.135L52.3511 311.908C50.8823 311.908 49.5229 311.455 48.2729 310.549C47.0229 309.643 46.0464 308.361 45.3433 306.705C44.6245 305.049 44.2651 303.189 44.2651 301.127C44.2651 298.002 45.0542 295.525 46.6323 293.697C48.1948 291.854 50.3979 290.932 53.2417 290.932L64.2339 290.932C66.6401 290.916 68.4604 290.58 69.6948 289.924L70.0933 289.924L70.0933 296.768ZM65.3823 302.369C65.3823 301.369 65.1636 300.447 64.7261 299.604C64.2729 298.76 63.6714 298.135 62.9214 297.729L58.562 297.729L58.562 300.26C58.562 303.65 59.7339 305.455 62.0776 305.674L62.4761 305.697C63.3198 305.697 64.0151 305.4 64.562 304.807C65.1089 304.213 65.3823 303.4 65.3823 302.369ZM65.1011 275.182C65.1011 273.932 64.7573 272.916 64.0698 272.135C63.3823 271.354 62.4683 270.947 61.3276 270.916L61.3276 264.564C63.0464 264.58 64.6245 265.049 66.062 265.971C67.4839 266.893 68.5933 268.158 69.3901 269.768C70.1714 271.361 70.562 273.127 70.562 275.064C70.562 278.689 69.4136 281.549 67.1167 283.643C64.8042 285.736 61.6167 286.783 57.5542 286.783L57.1089 286.783C53.2026 286.783 50.0854 285.744 47.7573 283.666C45.4292 281.588 44.2651 278.736 44.2651 275.111C44.2651 271.939 45.1714 269.4 46.9839 267.494C48.7808 265.572 51.1792 264.596 54.1792 264.564L54.1792 270.916C52.8667 270.947 51.8042 271.354 50.9917 272.135C50.1636 272.916 49.7495 273.947 49.7495 275.229C49.7495 276.807 50.3276 278.002 51.4839 278.814C52.6245 279.611 54.4839 280.01 57.062 280.01L57.7651 280.01C60.3745 280.01 62.2495 279.611 63.3901 278.814C64.5308 278.018 65.1011 276.807 65.1011 275.182ZM58.7495 242.838C60.9526 242.635 62.5386 241.986 63.5073 240.893C64.4604 239.799 64.937 238.213 64.937 236.135C64.937 233.838 64.1792 232.135 62.6636 231.025C61.1323 229.916 58.8745 229.275 55.8901 229.104L55.8901 239.885L50.1948 239.885L50.1948 229.127C47.1479 229.314 44.8901 230.002 43.4214 231.189C41.937 232.361 41.1948 234.041 41.1948 236.229C41.1948 238.354 41.7026 239.947 42.7183 241.01C43.7183 242.072 45.3354 242.689 47.5698 242.861L47.5698 249.893C43.8354 249.549 40.8901 248.189 38.7339 245.814C36.5776 243.424 35.4995 240.229 35.4995 236.229C35.4995 233.385 36.1714 230.893 37.5151 228.752C38.8433 226.596 40.7573 224.939 43.2573 223.783C45.7417 222.627 48.6401 222.049 51.9526 222.049L54.1792 222.049C59.2104 222.049 63.2026 223.307 66.1558 225.822C69.0933 228.322 70.562 231.76 70.562 236.135C70.562 240.166 69.4995 243.4 67.3745 245.838C65.2339 248.26 62.3589 249.604 58.7495 249.869L58.7495 242.838ZM64.6323 217.174C63.0073 215.643 61.3979 214.604 59.8042 214.057C58.2104 213.51 55.9526 213.205 53.0308 213.143L44.7339 212.955L44.7339 194.299L64.6323 194.299L64.6323 190.643L77.7104 190.643L77.7104 197.416L70.0933 197.416L70.0933 212.439L77.7104 212.439L77.7104 219.354L64.6323 219.354L64.6323 217.174ZM64.6323 209.182L64.6323 201.049L50.3354 201.049L50.3354 206.322L53.3823 206.369C58.0386 206.51 61.7886 207.447 64.6323 209.182ZM44.7339 172.338L44.7339 165.564L70.0933 165.564L70.0933 172.338L54.437 172.338L70.0933 180.822L70.0933 187.619L44.7339 187.619L44.7339 180.822L60.3667 180.822L44.7339 172.338ZM65.1011 149.838C65.1011 148.588 64.7573 147.572 64.0698 146.791C63.3823 146.01 62.4683 145.604 61.3276 145.572L61.3276 139.221C63.0464 139.236 64.6245 139.705 66.062 140.627C67.4839 141.549 68.5933 142.814 69.3901 144.424C70.1714 146.018 70.562 147.783 70.562 149.721C70.562 153.346 69.4136 156.205 67.1167 158.299C64.8042 160.393 61.6167 161.439 57.5542 161.439L57.1089 161.439C53.2026 161.439 50.0854 160.4 47.7573 158.322C45.4292 156.244 44.2651 153.393 44.2651 149.768C44.2651 146.596 45.1714 144.057 46.9839 142.15C48.7808 140.229 51.1792 139.252 54.1792 139.221L54.1792 145.572C52.8667 145.604 51.8042 146.01 50.9917 146.791C50.1636 147.572 49.7495 148.604 49.7495 149.885C49.7495 151.463 50.3276 152.658 51.4839 153.471C52.6245 154.268 54.4839 154.666 57.062 154.666L57.7651 154.666C60.3745 154.666 62.2495 154.268 63.3901 153.471C64.5308 152.674 65.1011 151.463 65.1011 149.838ZM57.1792 136.408C54.6636 136.408 52.4214 135.924 50.4526 134.955C48.4839 133.986 46.9604 132.596 45.8823 130.783C44.8042 128.955 44.2651 126.838 44.2651 124.432C44.2651 121.01 45.312 118.221 47.4058 116.064C49.4995 113.893 52.3433 112.682 55.937 112.432L57.6714 112.385C61.562 112.385 64.687 113.471 67.0464 115.643C69.3901 117.814 70.562 120.729 70.562 124.385C70.562 128.041 69.3901 130.963 67.0464 133.15C64.7026 135.322 61.5151 136.408 57.4839 136.408L57.1792 136.408ZM57.6714 129.635C60.0776 129.635 61.9214 129.182 63.2026 128.275C64.4683 127.369 65.1011 126.072 65.1011 124.385C65.1011 122.744 64.4761 121.463 63.2261 120.541C61.9604 119.619 59.9448 119.158 57.1792 119.158C54.8198 119.158 52.9917 119.619 51.6948 120.541C50.3979 121.463 49.7495 122.76 49.7495 124.432C49.7495 126.088 50.3979 127.369 51.6948 128.275C52.9761 129.182 54.9683 129.635 57.6714 129.635ZM70.0933 86.2285L70.0933 93.0254L60.3433 93.0254L60.3433 101.439L70.0933 101.439L70.0933 108.213L44.7339 108.213L44.7339 101.439L54.9058 101.439L54.9058 93.0254L44.7339 93.0254L44.7339 86.2285L70.0933 86.2285Z" fill="white"/>
</svg>
