<svg width="239" height="360" viewBox="0 0 239 360" fill="none" xmlns="http://www.w3.org/2000/svg">
<path d="M146.62 353.95L227.712 316.573C233.793 313.77 236.514 306.426 233.79 300.169L108.045 11.3314C105.321 5.07452 98.1835 2.27444 92.1026 5.07721L11.0104 42.454C4.92952 45.2567 2.20813 52.601 4.93206 58.8579L130.677 347.695C133.401 353.952 140.539 356.752 146.62 353.95Z" fill="#E97F31"/>
<path d="M186.482 301.342L184.059 295.822L161.95 306.089L180.575 287.885L178.523 283.212L152.931 285.542L175.039 275.275L172.616 269.755L143.085 283.469L146.374 290.963L172.605 288.773L153.661 307.562L156.951 315.056L186.482 301.342ZM138.588 252.87L140.746 257.786L143.859 256.34L143.894 256.421C142.088 259.2 141.867 262.309 143.264 265.492C145.97 271.656 153.156 274.237 160.1 271.012C167.243 267.695 169.374 260.4 166.88 254.719C166.367 253.551 164.541 249.937 159.897 248.989L159.862 248.909L162.855 247.519L160.697 242.604L138.588 252.87ZM147.921 262.311C146.223 258.443 147.982 254.571 151.813 252.792C155.844 250.92 159.73 252.22 161.41 256.047C163.125 259.955 161.499 263.912 157.748 265.654C153.757 267.507 149.619 266.179 147.921 262.311ZM166.167 234.818L163.814 229.459L154.037 234L154.002 233.919C155.716 230.601 154.957 227.558 154.161 225.745C151.048 218.655 143.538 217.195 137.472 220.012C130.328 223.329 127.945 230.596 130.616 236.679C131.376 238.412 133.452 241.716 137.356 242.183L137.391 242.263L134.518 243.598L136.675 248.513L166.167 234.818ZM135.892 234.908C133.911 230.396 136.831 226.76 139.784 225.389C143.695 223.573 147.789 225.018 149.469 228.846C151.061 232.472 149.749 236.379 145.519 238.343C141.648 240.141 137.607 238.816 135.892 234.908ZM125 221.916L147.108 211.649L144.756 206.291L126.079 203.033L140.405 196.38L138.053 191.021L115.944 201.288L118.297 206.646L136.974 209.905L122.648 216.558L125 221.916ZM106.392 179.527L110.654 189.237C112.971 194.515 117.779 195.726 121.57 193.965C125.121 192.316 127.102 188.729 125.914 184.818L136.689 187.914L133.753 181.226L122.352 178.566L130.853 174.619L128.5 169.261L106.392 179.527ZM119 180.123L120.822 184.273C121.494 185.804 121.293 187.643 119.497 188.477C117.741 189.293 116.088 188.702 115.275 186.849L113.453 182.699L119 180.123ZM122.214 154.94L119.791 149.421L106.861 155.425L115.723 140.154L112.823 133.547L102.752 151.756L83.2914 147.261L86.192 153.868L103.07 157.186L90.2598 163.134L92.6828 168.654L122.214 154.94ZM95.0147 131.722L87.0333 135.429L89.3856 140.787L111.494 130.521L109.142 125.162L100.043 129.387L98.6634 126.245C103.817 122.882 106.128 116.328 103.263 109.801C100.221 102.871 92.8356 100.384 86.3307 103.404C79.8658 106.406 76.6583 113.765 79.718 120.735C82.3356 126.697 87.9656 129.564 93.6352 128.58L95.0147 131.722ZM84.7463 118.4C82.9954 114.411 85.0914 110.431 88.683 108.763C92.2746 107.095 96.5016 108.187 98.2348 112.136C99.9681 116.084 98.0272 120.09 94.3956 121.776C90.7641 123.462 86.4795 122.348 84.7463 118.4ZM103.315 91.6426L100.963 86.2842L91.1855 90.8245L91.1502 90.7439C92.8643 87.4258 92.1052 84.3832 91.3093 82.5702C88.1965 75.4793 80.6858 74.0199 74.62 76.8368C67.4766 80.154 65.0936 87.4204 67.7642 93.5041C68.5247 95.2365 70.5999 98.541 74.504 99.0076L74.5393 99.0882L71.666 100.422L73.8238 105.338L103.315 91.6426ZM73.0401 91.7331C71.0592 87.2207 73.9792 83.5851 76.9323 82.2138C80.8432 80.3976 84.9369 81.8433 86.6171 85.6707C88.2088 89.2967 86.8973 93.2039 82.6672 95.1683C78.7962 96.9659 74.7556 95.6411 73.0401 91.7331ZM62.1481 78.7408L84.2565 68.474L81.9043 63.1156L63.2269 59.8575L77.5535 53.2045L75.2012 47.8461L53.0927 58.1128L55.445 63.4713L74.1224 66.7293L59.7958 73.3823L62.1481 78.7408Z" fill="white"/>
</svg>
