<svg width="113" height="491" viewBox="0 0 113 491" fill="none" xmlns="http://www.w3.org/2000/svg">
<path d="M12.0516 0H100.812C102.395 0 103.962 0.315624 105.424 0.92885C106.887 1.54208 108.215 2.4409 109.334 3.57399C110.453 4.70709 111.341 6.05227 111.947 7.53273C112.552 9.01318 112.864 10.5999 112.864 12.2024V491H0V12.2024C0 8.9661 1.26971 5.86238 3.52982 3.57399C5.78993 1.2856 8.8553 0 12.0516 0Z" fill="#E24236"/>
<path d="M69.0825 397.037L69.0825 391.009L42.3745 391.009L42.3745 384.981L36.5225 384.981L36.5225 403.065L42.3745 403.065L42.3745 397.037L69.0825 397.037ZM43.9145 370.729C43.9145 378.209 49.8105 383.665 56.9385 383.665C64.0225 383.665 69.8745 378.165 69.8745 370.729C69.8745 363.293 64.0225 357.793 56.9385 357.793C49.8105 357.793 43.9145 363.249 43.9145 370.729ZM49.4585 370.729C49.4585 366.373 52.9785 363.645 56.9385 363.645C60.8985 363.645 64.3305 366.417 64.3305 370.729C64.3305 375.041 60.8985 377.813 56.9385 377.813C52.9785 377.813 49.4585 375.085 49.4585 370.729ZM69.0825 354.288L69.0825 348.436L51.1745 348.436L69.0825 341.924L69.0825 337.084L51.1745 330.572L69.0825 330.572L69.0825 324.72L44.7065 324.72L44.7065 333.212L62.0425 339.504L44.7065 345.796L44.7065 354.288L69.0825 354.288ZM44.7065 295.668L44.7065 301.036L48.1385 301.036L48.1385 301.124C45.3665 302.884 43.9145 305.612 43.9145 309.088C43.9145 315.82 49.4585 321.188 57.1145 321.188C64.9905 321.188 69.8745 315.468 69.8745 309.264C69.8745 307.988 69.6545 303.94 65.7825 301.124L65.7825 301.036L69.0825 301.036L69.0825 295.668L44.7065 295.668ZM49.4585 308.164C49.4585 303.94 52.6265 301.168 56.8505 301.168C61.2945 301.168 64.3305 303.984 64.3305 308.164C64.3305 312.432 61.2505 315.336 57.1145 315.336C52.7145 315.336 49.4585 312.388 49.4585 308.164ZM61.1625 273.045C64.1545 274.673 64.3305 277.797 64.3305 278.809C64.3305 283.297 60.9865 286.113 56.8065 286.113C52.8905 286.113 49.4585 283.473 49.4585 278.809C49.4585 276.257 50.5585 274.189 52.8025 273.045L52.8025 266.445C47.5225 268.073 43.9145 272.561 43.9145 278.721C43.9145 287.829 51.0425 291.965 56.7185 291.965C62.7905 291.965 69.8745 287.653 69.8745 278.501C69.8745 272.429 66.3105 268.249 61.1625 266.445L61.1625 273.045ZM45.8505 247.127C42.0225 244.179 41.8025 240.131 41.8025 238.371C41.8025 232.651 45.5865 229.263 49.9425 228.119L49.9425 242.815L55.6625 242.815L55.6625 228.119C60.9865 229.219 64.0225 233.707 64.0225 238.415C64.0225 241.759 62.7905 244.883 60.2385 246.819L60.2385 253.815C65.9585 251.175 69.8745 246.027 69.8745 238.943C69.8745 227.327 60.4145 222.091 52.8025 222.091C43.1225 222.091 35.9505 229.395 35.9505 238.767C35.9505 245.807 39.6905 251.395 45.8505 253.991L45.8505 247.127ZM44.7065 203.154L44.7065 208.434L63.8905 217.366L63.8905 220.27L75.2425 220.27L75.2425 214.55L69.0825 214.55L69.0825 197.038L75.2425 197.038L75.2425 191.318L63.8905 191.318L63.8905 194.222L44.7065 203.154ZM63.8905 210.766L52.6265 205.794L63.8905 200.822L63.8905 210.766ZM44.7065 188.472L69.0825 188.472L69.0825 182.62L53.2865 171.796L69.0825 171.796L69.0825 165.944L44.7065 165.944L44.7065 171.796L60.5025 182.62L44.7065 182.62L44.7065 188.472ZM61.1625 143.322C64.1545 144.95 64.3305 148.074 64.3305 149.086C64.3305 153.574 60.9865 156.39 56.8065 156.39C52.8905 156.39 49.4585 153.75 49.4585 149.086C49.4585 146.534 50.5585 144.466 52.8025 143.322L52.8025 136.722C47.5225 138.35 43.9145 142.838 43.9145 148.998C43.9145 158.106 51.0425 162.242 56.7185 162.242C62.7905 162.242 69.8745 157.93 69.8745 148.778C69.8745 142.706 66.3105 138.526 61.1625 136.722L61.1625 143.322ZM43.9145 121.338C43.9145 128.818 49.8105 134.274 56.9385 134.274C64.0225 134.274 69.8745 128.774 69.8745 121.338C69.8745 113.902 64.0225 108.402 56.9385 108.402C49.8105 108.402 43.9145 113.858 43.9145 121.338ZM49.4585 121.338C49.4585 116.982 52.9785 114.254 56.9385 114.254C60.8985 114.254 64.3305 117.026 64.3305 121.338C64.3305 125.65 60.8985 128.422 56.9385 128.422C52.9785 128.422 49.4585 125.694 49.4585 121.338ZM44.7065 104.897L69.0825 104.897L69.0825 99.0454L58.8745 99.0454L58.8745 89.9814L69.0825 89.9814L69.0825 84.1294L44.7065 84.1294L44.7065 89.9814L53.6825 89.9814L53.6825 99.0454L44.7065 99.0454L44.7065 104.897Z" fill="white"/>
</svg>
