<svg width="437" height="258" viewBox="0 0 437 258" fill="none" xmlns="http://www.w3.org/2000/svg">
<path d="M26.4678 164.274L26.4678 246.884C26.4678 252.708 31.1373 257.43 36.8974 257.43H394.252C400.012 257.43 404.682 252.708 404.682 246.884V164.274C404.682 158.45 400.012 153.729 394.252 153.729L36.8974 153.729C31.1373 153.729 26.4678 158.45 26.4678 164.274Z" fill="#77C3A9"/>
<path d="M17.6377 87.6351L17.6377 142.614C17.6377 148.73 22.5407 153.688 28.5889 153.688L425.507 153.688C431.555 153.688 436.458 148.73 436.458 142.614V87.6351C436.458 81.5195 431.555 76.5619 425.507 76.5619L28.5889 76.5619C22.5407 76.5619 17.6377 81.5195 17.6377 87.6351Z" fill="#E24236"/>
<path d="M0.254883 11.0726L0.254883 66.0518C0.254883 72.1674 5.15788 77.125 11.206 77.125L408.124 77.125C414.172 77.125 419.076 72.1674 419.076 66.0518V11.0726C419.076 4.95702 414.172 -0.00063324 408.124 -0.00063324L11.206 -0.00063324C5.15788 -0.00063324 0.254883 4.95702 0.254883 11.0726Z" fill="#E97F31"/>
</svg>
