<svg width="372" height="416" viewBox="0 0 372 416" fill="none" xmlns="http://www.w3.org/2000/svg">
<g clip-path="url(#clip0)">
<path d="M213.945 85.0803L196.515 88.7602C194.574 89.1777 192.878 90.3474 191.797 92.0131C190.716 93.6789 190.34 95.7049 190.75 97.6475L198.39 133.835L213.049 130.74L206.953 101.868L217.151 99.7149C218.992 99.2061 220.571 98.0141 221.564 96.3819C222.557 94.7497 222.89 92.8001 222.496 90.9307C222.101 89.0613 221.008 87.4128 219.44 86.3214C217.872 85.2299 215.946 84.7777 214.056 85.0569L213.945 85.0803Z" fill="white" stroke="white" stroke-width="1.24" stroke-miterlimit="10"/>
<path d="M171.384 132.329L221.262 121.798C228.979 120.169 237.027 121.671 243.636 125.976C250.244 130.28 254.872 137.033 256.501 144.749L258.344 153.477L159.972 174.246L156.082 155.82C154.996 150.676 155.998 145.311 158.867 140.905C161.737 136.5 166.239 133.415 171.384 132.329Z" fill="#539A8C"/>
<path d="M69.5143 237.572C67.7005 223.223 85.5031 208.147 100.898 198.529C120.63 186.288 138.567 178.015 150.897 174.861C152.366 174.551 153.862 174.235 155.278 173.676C185.72 164.203 216.794 156.897 248.267 151.815C262.268 149.743 276.564 152.189 289.079 158.799C300.891 164.572 310.016 174.685 314.548 187.026C315.382 189.744 321.586 211.59 309.187 230.184C302.629 240.252 285.399 249.129 282.24 250.346C270.83 254.433 244.111 262.65 235.858 263.727C180.1 270.955 154.408 272.24 130.569 270.79C121.948 270.266 72.4447 260.775 69.5143 237.572Z" fill="#539A8C"/>
<path d="M54.0135 235.72C49.2743 230.592 45.9946 224.289 44.5149 217.465C43.9949 215.113 43.7401 212.711 43.7553 210.302L43.7504 209.319C44.4856 206.906 44.7285 203.121 48.6074 201.202C51.6864 199.799 55.1594 199.516 58.4248 200.403C60.7799 201.631 62.5895 203.696 63.4968 206.192C65.1894 209.934 66.0478 214 66.0123 218.107C66.1908 224 65.4822 229.887 63.9101 235.57" fill="white"/>
<path d="M54.0135 235.72C49.2743 230.592 45.9946 224.289 44.5149 217.465V217.465C43.9949 215.113 43.7401 212.711 43.7553 210.302L43.7504 209.319C44.4856 206.906 44.7285 203.121 48.6074 201.202C51.6864 199.799 55.1594 199.516 58.4248 200.403C60.7799 201.631 62.5895 203.696 63.4968 206.192C65.1894 209.934 66.0478 214 66.0123 218.107C66.1908 224 65.4822 229.887 63.9101 235.57" stroke="white" stroke-width="1.24" stroke-miterlimit="10"/>
<path d="M56.6404 248.163C54.3787 254.769 53.9269 261.86 55.332 268.7C55.8069 271.061 56.545 273.361 57.5325 275.558L57.9183 276.837C59.5662 278.747 61.3184 282.11 65.6418 282.297C69.0246 282.313 72.3089 281.16 74.9387 279.032C76.682 276.866 77.5114 274.105 77.2506 271.337C77.286 267.23 76.4277 263.164 74.7351 259.422C72.516 253.96 69.4882 248.862 65.7531 244.299" fill="white"/>
<path d="M56.6404 248.163C54.3787 254.769 53.9269 261.86 55.332 268.7V268.7C55.8069 271.061 56.545 273.361 57.5325 275.558L57.9183 276.837C59.5662 278.747 61.3184 282.11 65.6418 282.297C69.0246 282.313 72.3089 281.16 74.9387 279.032C76.682 276.866 77.5114 274.105 77.2506 271.337C77.286 267.23 76.4277 263.164 74.7351 259.422C72.516 253.96 69.4882 248.862 65.7531 244.299" stroke="white" stroke-width="1.24" stroke-miterlimit="10"/>
<path d="M62.3948 250.19C67.5369 249.104 70.8254 244.056 69.7398 238.914C68.6542 233.772 63.6057 230.484 58.4635 231.569C53.3214 232.655 50.0329 237.703 51.1185 242.845C52.204 247.987 57.2526 251.275 62.3948 250.19Z" fill="white" stroke="white" stroke-width="1.24" stroke-miterlimit="10"/>
<path d="M129.326 243.379C137.774 241.595 143.177 233.301 141.393 224.854C139.61 216.407 131.316 211.005 122.868 212.788C114.42 214.572 109.017 222.866 110.801 231.313C112.584 239.76 120.878 245.162 129.326 243.379Z" fill="white" stroke="#FFCD67" stroke-width="1.24" stroke-miterlimit="10"/>
<path d="M176.932 233.328C185.38 231.544 190.783 223.251 188.999 214.803C187.216 206.356 178.922 200.954 170.474 202.737C162.026 204.521 156.624 212.815 158.407 221.262C160.191 229.709 168.485 235.112 176.932 233.328Z" fill="white" stroke="#FFCD67" stroke-width="1.24" stroke-miterlimit="10"/>
<path d="M225.625 221.978C234.073 220.195 239.476 211.901 237.692 203.454C235.909 195.006 227.615 189.604 219.167 191.388C210.719 193.171 205.317 201.465 207.1 209.912C208.884 218.36 217.178 223.762 225.625 221.978Z" fill="white" stroke="#FFCD67" stroke-width="1.24" stroke-miterlimit="10"/>
<path d="M273.232 211.928C281.68 210.144 287.082 201.85 285.299 193.403C283.515 184.955 275.221 179.553 266.773 181.337C258.325 183.121 252.923 191.414 254.706 199.862C256.49 208.309 264.784 213.711 273.232 211.928Z" fill="white" stroke="#FFCD67" stroke-width="1.24" stroke-miterlimit="10"/>
</g>
<defs>
<clipPath id="clip0">
<rect width="304" height="360" fill="white" transform="translate(0.0952148 63.2812) rotate(-11.9216)"/>
</clipPath>
</defs>
</svg>
