<svg width="482" height="282" viewBox="0 0 482 282" fill="none" xmlns="http://www.w3.org/2000/svg">
<path d="M29.0059 191.538L29.0059 258.17C29.0059 271.038 39.424 281.469 52.2753 281.469H422.785C435.636 281.469 446.054 271.038 446.054 258.17V191.538C446.054 178.671 435.636 168.239 422.785 168.239L52.2753 168.239C39.424 168.239 29.0059 178.671 29.0059 191.538Z" fill="#77C3A9"/>
<path d="M19.2686 105.943L19.2686 146.322C19.2686 158.426 29.0688 168.238 41.158 168.238L459.203 168.238C471.292 168.238 481.092 158.426 481.092 146.322V105.943C481.092 93.8387 471.292 84.0262 459.203 84.0262L41.158 84.0262C29.0688 84.0262 19.2686 93.8387 19.2686 105.943Z" fill="#E24236"/>
<path d="M0.101563 22.3063L0.101563 62.685C0.101563 74.7892 9.90175 84.6016 21.9909 84.6016L440.036 84.6016C452.125 84.6016 461.926 74.7892 461.926 62.685V22.3063C461.926 10.2021 452.125 0.389648 440.036 0.389648L21.9909 0.389648C9.90175 0.389648 0.101563 10.2021 0.101563 22.3063Z" fill="#E97F31"/>
</svg>
