<svg width="111" height="485" viewBox="0 0 111 485" fill="none" xmlns="http://www.w3.org/2000/svg">
<path d="M113 485H1.19209e-07L1.19209e-07 28.265C1.19209e-07 24.5532 0.735187 20.8778 2.16355 17.4485C3.5919 14.0192 5.68538 10.9033 8.32465 8.27866C10.9639 5.65402 14.0972 3.57201 17.5455 2.15156C20.9939 0.731111 24.6898 -5.93702e-06 28.4223 -5.93702e-06H84.5776C88.3101 -5.93702e-06 92.006 0.731111 95.4543 2.15156C98.9027 3.57201 102.036 5.65402 104.675 8.27866C107.314 10.9033 109.408 14.0192 110.836 17.4485C112.265 20.8778 113 24.5532 113 28.265L113 485Z" fill="#77C3A9"/>
</svg>
