<svg width="220" height="330" viewBox="0 0 220 330" fill="none" xmlns="http://www.w3.org/2000/svg">
<path d="M204.721 302.281L148.926 327.268C142.734 330.04 135.694 330.241 129.354 327.824C123.015 325.408 117.895 320.573 115.121 314.383L3.0704 64.3135C-0.206817 56.9996 -0.443521 48.6837 2.41234 41.1954C5.26821 33.707 10.9827 27.6595 18.2987 24.3832L65.6518 3.17752C72.9678 -0.0987376 81.2861 -0.335422 88.7766 2.51961C96.2672 5.37465 102.316 11.0875 105.594 18.4015L217.644 268.471C220.418 274.661 220.618 281.699 218.201 288.037C215.784 294.374 210.948 299.493 204.756 302.266L204.721 302.281Z" fill="#E97F31"/>
</svg>
