<svg width="221" height="330" viewBox="0 0 221 330" fill="none" xmlns="http://www.w3.org/2000/svg">
<path d="M204.973 302.475L149.177 327.461C142.985 330.234 135.945 330.434 129.606 328.018C123.266 325.601 118.146 320.766 115.373 314.576L3.32192 64.5069C0.044713 57.193 -0.191998 48.8772 2.66385 41.3888C5.51972 33.9004 11.2342 27.8529 18.5502 24.5767L65.9034 3.37093C73.2194 0.0946729 81.5376 -0.142015 89.0281 2.71302C96.5187 5.56808 102.568 11.281 105.845 18.5949L217.896 268.664C220.67 274.854 220.87 281.892 218.453 288.23C216.036 294.568 211.199 299.686 205.008 302.459L204.973 302.475Z" fill="#E24236"/>
</svg>
