<svg width="361" height="344" viewBox="0 0 361 344" fill="none" xmlns="http://www.w3.org/2000/svg">
<path d="M268.526 344.236L349.244 308.01C355.296 305.294 358.005 298.176 355.294 292.112L230.13 12.1693C227.419 6.10514 220.314 3.39129 214.261 6.10774L133.544 42.3334C127.491 45.0499 124.782 52.168 127.493 58.2321L252.657 338.174C255.369 344.239 262.473 346.952 268.526 344.236Z" fill="#E97F31"/>
<path d="M146.504 343.287L227.222 307.061C233.274 304.345 235.983 297.227 233.272 291.162L108.108 11.2202C105.397 5.15599 98.2918 2.44213 92.2391 5.15858L11.5215 41.3842C5.46875 44.1007 2.75995 51.2188 5.47128 57.283L130.635 337.225C133.347 343.289 140.451 346.003 146.504 343.287Z" fill="#E24236"/>
</svg>
