<svg width="182" height="271" viewBox="0 0 182 271" fill="none" xmlns="http://www.w3.org/2000/svg">
<path d="M180.224 236.2L121.421 72.9407V14.3365C123.221 14.043 124.844 13.0778 125.961 11.6353C127.079 10.1929 127.608 8.38042 127.443 6.56302C127.278 4.74562 126.43 3.05835 125.071 1.84114C123.712 0.623924 121.942 -0.0327897 120.119 0.00329096H61.125C59.2942 -0.052024 57.5109 0.591696 56.1372 1.80377C54.7635 3.01584 53.9023 4.70543 53.7285 6.52956C53.5546 8.35368 54.0811 10.1756 55.2011 11.6256C56.3211 13.0755 57.9507 14.0447 59.759 14.3365V75.4832L1.49605 236.136C-4.60344 252.948 8.70744 270.46 27.6413 270.46H154.047C172.949 270.46 186.26 253.012 180.224 236.2Z" fill="#5A2A5B"/>
</svg>
