<svg width="121" height="85" viewBox="0 0 121 85" fill="none" xmlns="http://www.w3.org/2000/svg">
<path d="M10.9848 67.6022C9.92132 63.9064 9.52496 60.051 9.81439 56.2174C11.3777 36.2052 31.7801 24.9117 34.4953 23.4646C34.2881 24.2588 33.0314 29.4732 36.261 33.9823C39.2688 38.1882 44.9567 40.052 50.4372 38.5454C49.509 37.6953 48.779 36.6511 48.2991 35.4869C46.813 31.8356 48.4801 28.3943 48.8036 27.7609L52.6049 31.1486C53.4115 30.4855 54.3185 29.9553 55.2917 29.5776C56.5607 29.0842 57.917 28.8546 59.2781 28.9028C59.6012 27.0161 59.9269 25.1286 60.2552 23.2401C61.1705 23.7455 64.993 25.9971 65.8311 30.2532C65.9982 31.1197 66.0349 32.0063 65.9401 32.8834C68.0365 32.4491 69.9717 31.4433 71.5325 29.9769C73.0932 28.5105 74.219 26.6403 74.7857 24.5726C76.0396 19.7058 73.7963 14.3847 69.2223 11.666C71.8233 11.0129 89.3008 6.92204 103.614 17.9816C108.483 21.7968 112.328 26.7661 114.801 32.4405C108.941 27.4432 100.882 27.0884 95.7165 31.085C90.3039 35.2712 90.4434 42.3937 90.4741 43.1834C86.2005 42.346 81.9836 44.3786 80.22 47.9679C78.0234 52.4319 80.8205 56.8554 80.9502 57.0563C80.3218 56.8233 76.8556 55.7096 73.4731 57.5725C70.2432 59.3485 68.3938 63.1312 68.8202 67.1391C66.5713 63.6201 62.6187 61.8123 58.965 62.5664C55.3114 63.3204 53.4577 66.2733 53.0969 66.8748C53.0473 65.0276 52.4452 63.2372 51.3687 61.7353C50.2921 60.2334 48.7907 59.0893 47.0587 58.451C45.3268 57.8128 43.4441 57.7099 41.6545 58.1556C39.8649 58.6013 38.2508 59.5751 37.0212 60.9509C36.5456 60.3153 32.1444 54.5915 25.1658 54.7178C18.5981 54.8391 12.5179 60.099 10.9848 67.6022Z" fill="#5A2A5B"/>
</svg>
