<svg width="108" height="56" viewBox="0 0 108 56" fill="none" xmlns="http://www.w3.org/2000/svg">
<path d="M0.660957 24.2647C1.82041 20.5979 3.62389 17.1673 5.98649 14.1345C18.3633 -1.66881 41.6066 0.215441 44.6691 0.512666C44.0569 1.05951 40.1245 4.70725 40.3192 10.2502C40.4968 15.4179 44.2029 20.118 49.6015 21.896C49.2988 20.6743 49.2686 19.4005 49.5132 18.1653C50.296 14.3016 53.589 12.3579 54.209 12.0094L55.5004 16.9347C56.5392 16.8288 57.5881 16.889 58.6077 17.1131C59.9377 17.4045 61.1944 17.9638 62.3015 18.7571C63.6146 17.3644 64.9305 15.9725 66.2491 14.5813C66.7317 15.5088 68.6695 19.4995 67.0122 23.5083C66.6718 24.3225 66.2118 25.0813 65.6475 25.7593C67.6339 26.5577 69.8024 26.791 71.9139 26.4333C74.0254 26.0757 75.998 25.141 77.6143 23.7324C81.3519 20.3726 82.4282 14.6992 80.1229 9.90348C82.6508 10.7989 99.472 17.0637 105.274 34.1965C107.218 40.0688 107.67 46.3355 106.589 52.4301C104.474 45.0249 97.9583 40.2698 91.4438 40.7397C84.619 41.2312 80.7936 47.2408 80.3821 47.9156C77.286 44.8531 72.6489 44.2124 69.1936 46.226C64.8936 48.7285 64.7754 53.9609 64.7723 54.1999C64.3778 53.6581 62.1071 50.8123 58.2588 50.4921C54.5857 50.1839 50.952 52.311 49.0891 55.8853C49.1635 51.7097 46.8717 48.0166 43.4112 46.6227C39.9507 45.2288 36.7726 46.6625 36.1392 46.9638C37.1201 45.3978 37.6095 43.5733 37.544 41.7266C37.4785 39.8799 36.8611 38.0961 35.7717 36.606C34.6823 35.116 33.1712 33.9884 31.434 33.3692C29.6967 32.7501 27.8134 32.6679 26.0278 33.1334C25.9835 32.3408 25.4852 25.1377 19.6028 21.3809C14.0653 17.8474 6.09015 18.8636 0.660957 24.2647Z" fill="#5A2A5B"/>
</svg>
