<svg width="125" height="127" viewBox="0 0 125 127" fill="none" xmlns="http://www.w3.org/2000/svg">
<rect width="124.493" height="127" fill="white"/>
<rect x="112.796" y="94.4141" width="9.19079" height="27.5724" fill="#1B3D5C"/>
<rect x="1.6709" y="91.9082" width="13.3684" height="30.9145" fill="#D4C140"/>
<rect x="5.01318" y="13.3672" width="109.454" height="2.50658" fill="black"/>
<rect x="115.303" y="5.01367" width="115.303" height="2.50657" transform="rotate(90 115.303 5.01367)" fill="black"/>
<rect x="78.5396" y="5.01367" width="115.303" height="2.50657" transform="rotate(90 78.5396 5.01367)" fill="black"/>
<rect x="115.303" y="47.625" width="110.289" height="2.50657" transform="rotate(-180 115.303 47.625)" fill="black"/>
<rect x="115.303" y="94.4141" width="110.289" height="2.50657" transform="rotate(-180 115.303 94.4141)" fill="black"/>
<rect x="121.987" y="94.4141" width="97.7566" height="2.50657" transform="rotate(-180 121.987 94.4141)" fill="black"/>
<rect x="114.467" y="116.139" width="66.0066" height="2.50657" transform="rotate(-180 114.467 116.139)" fill="black"/>
<rect x="49.2959" y="76.0332" width="44.2829" height="2.50658" transform="rotate(90 49.2959 76.0332)" fill="black"/>
<rect x="96.9209" y="47.625" width="28.4079" height="2.50658" transform="rotate(90 96.9209 47.625)" fill="black"/>
<rect x="113.632" y="78.5391" width="96.0855" height="2.50657" transform="rotate(-180 113.632 78.5391)" fill="black"/>
<rect x="31.75" y="5.01367" width="101.099" height="2.50657" transform="rotate(90 31.75 5.01367)" fill="black"/>
<rect x="17.5459" y="15.875" width="104.441" height="2.50657" transform="rotate(90 17.5459 15.875)" fill="black"/>
<rect x="17.5459" y="15.875" width="58.4868" height="29.2434" fill="#E5311D"/>
<rect x="17.5459" y="15.875" width="58.4868" height="60.1579" fill="#E5311D"/>
<rect x="17.5459" y="78.5391" width="29.2434" height="30.0789" fill="black"/>
<rect x="48.4604" y="106.111" width="29.2434" height="7.51974" fill="black"/>
<rect x="78.5396" y="94.4141" width="34.2566" height="19.2171" fill="#1B3D5C"/>
<rect x="78.5396" y="15.875" width="34.2566" height="29.2434" fill="#D4C140"/>
</svg>
